<svg width="130" height="46" viewBox="0 0 130 46" fill="none" xmlns="http://www.w3.org/2000/svg">
<path d="M117.966 4.00012H12.0395C11.6534 4.00012 11.2719 4.00012 10.8868 4.00202C10.5645 4.00392 10.2447 4.00944 9.91922 4.01409C9.21218 4.0216 8.5068 4.07772 7.80922 4.18196C7.11261 4.28848 6.43783 4.48929 5.80769 4.77761C5.17832 5.06837 4.60325 5.44618 4.10334 5.89733C3.6008 6.34722 3.1819 6.86723 2.86273 7.43736C2.54269 8.00636 2.32077 8.6161 2.20464 9.24551C2.08741 9.87413 2.02432 10.51 2.01595 11.1474C2.00618 11.4387 2.00515 11.7309 2 12.0222V33.9807C2.00515 34.2757 2.00618 34.5614 2.01595 34.8565C2.02432 35.4939 2.08741 36.1297 2.20464 36.7583C2.32045 37.3881 2.54238 37.9982 2.86273 38.5674C3.18175 39.1357 3.60071 39.6536 4.10334 40.101C4.60135 40.5541 5.1768 40.9322 5.80769 41.2207C6.43782 41.5098 7.11253 41.7118 7.80922 41.82C8.50692 41.9234 9.21223 41.9795 9.91922 41.9879C10.2447 41.9944 10.5645 41.9981 10.8868 41.9981C11.2719 42 11.6534 42 12.0395 42H117.966C118.345 42 118.729 42 119.108 41.9981C119.428 41.9981 119.757 41.9944 120.078 41.9879C120.784 41.98 121.488 41.9238 122.184 41.82C122.883 41.7111 123.56 41.5091 124.193 41.2207C124.824 40.932 125.399 40.554 125.896 40.101C126.398 39.6518 126.817 39.1343 127.14 38.5674C127.458 37.9977 127.678 37.3877 127.792 36.7583C127.91 36.1296 127.975 35.4939 127.988 34.8565C127.992 34.5614 127.992 34.2757 127.992 33.9807C128 33.6356 128 33.2923 128 32.9416V13.0594C128 12.7115 128 12.3664 127.992 12.0222C127.992 11.7309 127.992 11.4387 127.988 11.1474C127.975 10.5099 127.91 9.87418 127.792 9.24547C127.678 8.61643 127.458 8.00674 127.14 7.43733C126.49 6.29455 125.46 5.36434 124.193 4.77752C123.56 4.48991 122.883 4.28915 122.184 4.18188C121.488 4.07717 120.784 4.02103 120.078 4.01396C119.757 4.00932 119.428 4.00375 119.108 4.0019C118.729 4 118.345 4 117.966 4V4.00012Z" fill="#A6A6A6"/>
<path d="M10.8926 41.1684C10.5718 41.1684 10.2588 41.1647 9.94048 41.1583C9.28111 41.1505 8.62327 41.0987 7.97237 41.0033C7.36545 40.909 6.77749 40.7336 6.22791 40.4828C5.68337 40.2341 5.18671 39.9081 4.75695 39.5171C4.32096 39.1307 3.95799 38.6825 3.6824 38.1904C3.40378 37.695 3.21096 37.1641 3.11065 36.6161C3.00233 36.0272 2.94372 35.4317 2.93534 34.8348C2.92866 34.6345 2.91992 33.9674 2.91992 33.9674V12.0219C2.91992 12.0219 2.92923 11.3651 2.93539 11.1721C2.94342 10.5761 3.00169 9.98161 3.10968 9.39363C3.21018 8.84408 3.40315 8.3116 3.68192 7.81464C3.95649 7.32284 4.31745 6.87437 4.75081 6.4866C5.18368 6.09514 5.68193 5.76738 6.2274 5.51525C6.77572 5.26529 7.36255 5.0911 7.96826 4.99851C8.62129 4.90215 9.28141 4.85005 9.94307 4.84265L10.8932 4.83105H119.103L120.064 4.84312C120.72 4.85015 121.374 4.90178 122.021 4.99758C122.633 5.09133 123.226 5.26674 123.781 5.51804C124.873 6.02614 125.763 6.83 126.324 7.81696C126.598 8.31049 126.788 8.83862 126.887 9.38343C126.996 9.97623 127.058 10.5754 127.07 11.1763C127.073 11.4453 127.073 11.7343 127.073 12.0219C127.081 12.3782 127.081 12.7172 127.081 13.0591V32.9413C127.081 33.2864 127.081 33.6232 127.073 33.9627C127.073 34.2717 127.073 34.5547 127.069 34.8459C127.057 35.436 126.997 36.0246 126.889 36.6067C126.791 37.1587 126.599 37.6938 126.32 38.1932C126.043 38.68 125.682 39.1243 125.251 39.5096C124.821 39.9027 124.323 40.2307 123.778 40.481C123.225 40.7337 122.632 40.9098 122.021 41.0033C121.37 41.0992 120.713 41.151 120.053 41.1583C119.745 41.1647 119.422 41.1684 119.108 41.1684L117.967 41.1703L10.8926 41.1684Z" fill="black"/>
<path d="M29.8408 23.3013C29.8516 22.4666 30.0739 21.6483 30.4871 20.9223C30.9003 20.1963 31.4909 19.5864 32.204 19.1492C31.751 18.5041 31.1534 17.9731 30.4586 17.5986C29.7638 17.224 28.991 17.0162 28.2016 16.9916C26.5177 16.8153 24.8851 17.9964 24.027 17.9964C23.1523 17.9964 21.8311 17.0091 20.4084 17.0383C19.4882 17.0679 18.5913 17.3348 17.8052 17.8128C17.0191 18.2909 16.3706 18.9638 15.9229 19.7661C13.9835 23.1145 15.4301 28.0356 17.2879 30.7422C18.2174 32.0675 19.3038 33.548 20.7252 33.4955C22.1162 33.4379 22.6356 32.611 24.3146 32.611C25.9781 32.611 26.4655 33.4955 27.9157 33.4621C29.4083 33.4379 30.3487 32.1308 31.2456 30.7929C31.9134 29.8486 32.4273 28.8049 32.7682 27.7004C31.9011 27.3347 31.1611 26.7225 30.6405 25.9402C30.12 25.158 29.8418 24.2402 29.8408 23.3013Z" fill="white"/>
<path d="M27.1033 15.2113C27.9171 14.2371 28.3181 12.9849 28.221 11.7207C26.9777 11.8509 25.8292 12.4435 25.0044 13.3803C24.6011 13.838 24.2923 14.3704 24.0955 14.9472C23.8987 15.5239 23.8178 16.1337 23.8575 16.7417C24.4794 16.7481 25.0946 16.6137 25.6568 16.3486C26.219 16.0835 26.7136 15.6946 27.1033 15.2113Z" fill="white"/>
<path d="M47.4235 30.1396H42.6768L41.5369 33.4961H39.5264L44.0224 21.0781H46.1112L50.6072 33.4961H48.5624L47.4235 30.1396ZM43.1684 28.5908H46.9309L45.0761 23.1436H45.0242L43.1684 28.5908Z" fill="white"/>
<path d="M60.316 28.9694C60.316 31.7829 58.8059 33.5905 56.527 33.5905C55.9498 33.6206 55.3757 33.488 54.8705 33.2079C54.3652 32.9277 53.9494 32.5114 53.6704 32.0065H53.6273V36.4909H51.7637V24.4421H53.5676V25.948H53.6019C53.8936 25.4455 54.3165 25.0313 54.8256 24.7495C55.3347 24.4676 55.9108 24.3287 56.4928 24.3474C58.797 24.3474 60.316 26.1638 60.316 28.9694ZM58.4004 28.9694C58.4004 27.1364 57.4505 25.9314 56.0011 25.9314C54.5772 25.9314 53.6195 27.1618 53.6195 28.9694C53.6195 30.7937 54.5772 32.0153 56.0011 32.0153C57.4505 32.0153 58.4004 30.819 58.4004 28.9694Z" fill="white"/>
<path d="M70.3101 28.9694C70.3101 31.7829 68.8 33.5905 66.5212 33.5905C65.9439 33.6206 65.3698 33.488 64.8646 33.2079C64.3594 32.9277 63.9435 32.5114 63.6646 32.0065H63.6214V36.4909H61.7578V24.4421H63.5617V25.9479H63.596C63.8877 25.4455 64.3106 25.0313 64.8197 24.7495C65.3288 24.4676 65.9049 24.3287 66.4869 24.3474C68.7912 24.3474 70.3101 26.1638 70.3101 28.9694ZM68.3946 28.9694C68.3946 27.1364 67.4447 25.9313 65.9953 25.9313C64.5714 25.9313 63.6136 27.1618 63.6136 28.9694C63.6136 30.7936 64.5714 32.0153 65.9953 32.0153C67.4447 32.0153 68.3946 30.819 68.3946 28.9694H68.3946Z" fill="white"/>
<path d="M76.9126 30.0362C77.0507 31.2676 78.2503 32.0761 79.8897 32.0761C81.4605 32.0761 82.5906 31.2676 82.5906 30.1572C82.5906 29.1933 81.909 28.6162 80.2951 28.2207L78.6812 27.833C76.3946 27.2822 75.333 26.2158 75.333 24.4853C75.333 22.3428 77.2054 20.8711 79.8642 20.8711C82.4956 20.8711 84.2995 22.3428 84.3602 24.4853H82.4789C82.3663 23.2461 81.339 22.498 79.8378 22.498C78.3365 22.498 77.3092 23.2549 77.3092 24.3564C77.3092 25.2344 77.9653 25.751 79.5704 26.1464L80.9424 26.4824C83.4974 27.0849 84.559 28.1084 84.559 29.9247C84.559 32.248 82.7032 33.7031 79.7516 33.7031C76.9899 33.7031 75.1253 32.2822 75.0049 30.0361L76.9126 30.0362Z" fill="white"/>
<path d="M88.5812 22.2998V24.4424H90.3077V25.9141H88.5812V30.9052C88.5812 31.6806 88.9269 32.042 89.6858 32.042C89.8908 32.0384 90.0954 32.024 90.2989 31.999V33.4618C89.9577 33.5254 89.6108 33.5542 89.2638 33.5478C87.4256 33.5478 86.7088 32.8593 86.7088 31.1035V25.9141H85.3887V24.4424H86.7087V22.2998H88.5812Z" fill="white"/>
<path d="M91.3086 28.9697C91.3086 26.1211 92.991 24.3311 95.6146 24.3311C98.247 24.3311 99.9216 26.121 99.9216 28.9697C99.9216 31.8261 98.2558 33.6084 95.6146 33.6084C92.9743 33.6084 91.3086 31.8261 91.3086 28.9697ZM98.0227 28.9697C98.0227 27.0156 97.1247 25.8623 95.6146 25.8623C94.1045 25.8623 93.2075 27.0244 93.2075 28.9697C93.2075 30.9316 94.1045 32.0761 95.6146 32.0761C97.1247 32.0761 98.0227 30.9316 98.0227 28.9697H98.0227Z" fill="white"/>
<path d="M101.458 24.442H103.235V25.983H103.279C103.399 25.5017 103.682 25.0764 104.079 24.7785C104.477 24.4806 104.965 24.3284 105.462 24.3473C105.677 24.3465 105.891 24.3698 106.101 24.4166V26.1549C105.83 26.0723 105.547 26.0343 105.264 26.0426C104.993 26.0316 104.723 26.0792 104.472 26.1821C104.222 26.285 103.997 26.4407 103.812 26.6386C103.628 26.8365 103.488 27.0719 103.404 27.3286C103.319 27.5852 103.291 27.8571 103.322 28.1256V33.4957H101.458L101.458 24.442Z" fill="white"/>
<path d="M114.693 30.8369C114.442 32.4804 112.837 33.6084 110.783 33.6084C108.142 33.6084 106.503 31.8437 106.503 29.0127C106.503 26.1728 108.151 24.3311 110.705 24.3311C113.217 24.3311 114.797 26.0517 114.797 28.7969V29.4336H108.384V29.5459C108.355 29.8791 108.396 30.2147 108.507 30.5306C108.617 30.8464 108.794 31.1352 109.025 31.3778C109.256 31.6203 109.536 31.8111 109.847 31.9374C110.157 32.0637 110.491 32.1226 110.827 32.1103C111.267 32.1515 111.709 32.0498 112.087 31.8203C112.464 31.5909 112.758 31.246 112.923 30.8369L114.693 30.8369ZM108.393 28.1348H112.932C112.949 27.8352 112.903 27.5353 112.798 27.2541C112.693 26.9729 112.531 26.7164 112.322 26.5006C112.113 26.2849 111.861 26.1145 111.583 26.0003C111.305 25.8861 111.006 25.8305 110.705 25.8369C110.402 25.8351 110.101 25.8932 109.82 26.008C109.539 26.1227 109.284 26.2918 109.069 26.5054C108.854 26.7191 108.684 26.973 108.568 27.2527C108.452 27.5323 108.392 27.8321 108.393 28.1348V28.1348Z" fill="white"/>
<path d="M41.8379 14.2534H42.638C42.7757 14.2705 42.9155 14.259 43.0485 14.2195C43.1816 14.1801 43.305 14.1136 43.411 14.0242C43.517 13.9348 43.6032 13.8246 43.6644 13.7003C43.7255 13.576 43.7601 13.4405 43.7661 13.3022C43.7661 12.7519 43.3509 12.3965 42.6468 12.3965C42.5057 12.3768 42.362 12.3855 42.2244 12.4221C42.0867 12.4587 41.9578 12.5225 41.8452 12.6096C41.7327 12.6967 41.6388 12.8054 41.5691 12.9293C41.4993 13.0533 41.4552 13.1898 41.4393 13.331H40.5608C40.576 13.0747 40.6438 12.8243 40.7602 12.5953C40.8766 12.3663 41.039 12.1636 41.2374 11.9999C41.4357 11.8362 41.6657 11.7149 41.9131 11.6437C42.1604 11.5725 42.4198 11.5528 42.6752 11.5859C43.8533 11.5859 44.6828 12.2436 44.6828 13.1904C44.6855 13.5076 44.5791 13.8161 44.3813 14.0645C44.1835 14.3128 43.9062 14.486 43.5957 14.5551V14.6255C43.9638 14.6417 44.3104 14.8026 44.5598 15.073C44.8091 15.3434 44.941 15.7012 44.9266 16.0683C44.8994 16.3322 44.8196 16.588 44.6919 16.8208C44.5643 17.0535 44.3913 17.2585 44.1832 17.4237C43.975 17.5889 43.7359 17.711 43.4798 17.7829C43.2237 17.8548 42.9558 17.875 42.6918 17.8422C42.4273 17.8782 42.1582 17.8607 41.9006 17.7907C41.6429 17.7208 41.4021 17.5998 41.1924 17.435C40.9826 17.2703 40.8083 17.0651 40.6798 16.8317C40.5513 16.5983 40.4712 16.3415 40.4443 16.0766H41.3365C41.3903 16.6474 41.9162 17.0156 42.6918 17.0156C43.4674 17.0156 43.9737 16.6021 43.9737 16.019C43.9737 15.4277 43.4968 15.0635 42.6634 15.0635H41.8379V14.2534Z" fill="white"/>
<path d="M45.9414 16.4238C45.9414 15.6133 46.5476 15.146 47.6209 15.0796L48.8441 15.0093V14.6206C48.8441 14.145 48.5297 13.8765 47.9196 13.8765C47.4221 13.8765 47.0784 14.0586 46.9785 14.3769H46.1157C46.2068 13.6035 46.9374 13.1074 47.9617 13.1074C49.0938 13.1074 49.7323 13.6694 49.7323 14.6206V17.6972H48.8734V17.0644H48.8029C48.6598 17.2914 48.4589 17.4765 48.2206 17.6007C47.9823 17.7249 47.7152 17.7838 47.4466 17.7714C47.257 17.7911 47.0654 17.7709 46.8842 17.7122C46.7029 17.6535 46.536 17.5576 46.3942 17.4306C46.2524 17.3037 46.1388 17.1485 46.0608 16.9751C45.9828 16.8016 45.9422 16.6139 45.9414 16.4238ZM48.8441 16.039V15.6626L47.7413 15.7329C47.1195 15.7744 46.8374 15.9853 46.8374 16.3823C46.8374 16.7876 47.19 17.0234 47.6748 17.0234C47.8168 17.0378 47.9603 17.0235 48.0967 16.9814C48.2331 16.9393 48.3596 16.8703 48.4687 16.7784C48.5778 16.6866 48.6672 16.5738 48.7317 16.4468C48.7962 16.3197 48.8344 16.1811 48.8441 16.039Z" fill="white"/>
<path d="M52.0962 13.9434V17.6982H51.2051V13.1953H54.1783V13.9433L52.0962 13.9434Z" fill="white"/>
<path d="M59.5792 15.4448C59.5792 16.8754 58.8535 17.7724 57.7136 17.7724C57.4338 17.7915 57.1543 17.7304 56.9081 17.5964C56.662 17.4624 56.4593 17.2611 56.324 17.0161H56.2535V19.1953H55.3623V13.1953H56.2202V13.9394H56.2868C56.4245 13.6859 56.6298 13.4752 56.8801 13.3307C57.1303 13.1862 57.4157 13.1135 57.7048 13.1206C58.8535 13.1206 59.5792 14.0136 59.5792 15.4448ZM58.6626 15.4448C58.6626 14.4936 58.2111 13.9189 57.4561 13.9189C56.706 13.9189 56.2368 14.5058 56.2368 15.4487C56.2368 16.3872 56.7059 16.9746 57.4521 16.9746C58.2111 16.9745 58.6626 16.3998 58.6626 15.4448Z" fill="white"/>
<path d="M60.766 19.311V18.5459C60.8624 18.5581 60.9596 18.5637 61.0568 18.5625C61.2467 18.5765 61.435 18.5201 61.5858 18.4041C61.7365 18.2882 61.839 18.1208 61.8735 17.9341L61.9401 17.7148L60.3057 13.1953H61.2762L62.4083 16.772H62.4788L63.6069 13.1953H64.552L62.8686 17.8843C62.4827 18.98 62.0557 19.3315 61.1352 19.3315C61.0607 19.3315 60.8492 19.3232 60.766 19.311Z" fill="white"/>
<path d="M65.2461 16.4195H66.1333C66.2205 16.8165 66.5936 17.0235 67.1156 17.0235C67.709 17.0235 68.0733 16.7628 68.0733 16.3575C68.0733 15.9234 67.7463 15.7164 67.1156 15.7164H66.4399V15.026H67.1038C67.6425 15.026 67.9167 14.8195 67.9167 14.443C67.9167 14.1124 67.6513 13.86 67.1038 13.86C66.6054 13.86 66.2411 14.0709 66.1833 14.4264H65.3244C65.3886 14.0179 65.611 13.6509 65.9438 13.4043C66.2766 13.1577 66.6931 13.0511 67.1038 13.1076C68.1771 13.1076 68.7912 13.5914 68.7912 14.3522C68.7962 14.564 68.7281 14.7712 68.5984 14.939C68.4686 15.1068 68.285 15.2251 68.0782 15.2741V15.3444C68.3244 15.376 68.5503 15.4967 68.7131 15.6835C68.8759 15.8702 68.9644 16.1101 68.9616 16.3575C68.9616 17.2135 68.231 17.7799 67.1156 17.7799C66.1294 17.7799 65.3284 17.3292 65.2461 16.4195Z" fill="white"/>
<path d="M70.2451 17.6973V13.1943H71.1284V16.2915H71.199L73.28 13.1943H74.1633V17.6973H73.28V14.5835H73.2134L71.1284 17.6973L70.2451 17.6973Z" fill="white"/>
<path d="M79.0271 13.9433H77.6051V17.6982H76.713V13.9433H75.291V13.1953H79.0271V13.9433Z" fill="white"/>
<path d="M83.8304 16.4815C83.7089 16.893 83.4464 17.2489 83.0886 17.487C82.7308 17.7252 82.3004 17.8303 81.8728 17.7842C81.5753 17.7921 81.2796 17.7353 81.0063 17.6177C80.7331 17.5002 80.4887 17.3248 80.2903 17.1036C80.0918 16.8825 79.944 16.6209 79.857 16.3371C79.7701 16.0533 79.7462 15.754 79.7868 15.46C79.7472 15.1651 79.7716 14.8652 79.8583 14.5805C79.9451 14.2959 80.0921 14.0331 80.2895 13.81C80.487 13.587 80.7301 13.4088 81.0026 13.2876C81.2751 13.1664 81.5705 13.105 81.8688 13.1075C83.1253 13.1075 83.8842 13.9635 83.8842 15.3775V15.6876H80.6956V15.7374C80.6815 15.9027 80.7022 16.0691 80.7564 16.2259C80.8107 16.3827 80.8972 16.5265 81.0104 16.648C81.1237 16.7695 81.2612 16.866 81.4141 16.9313C81.567 16.9967 81.7319 17.0294 81.8982 17.0274C82.1112 17.0528 82.327 17.0144 82.5182 16.9172C82.7093 16.82 82.8671 16.6684 82.9715 16.4815L83.8304 16.4815ZM80.6956 15.0304H82.9754C82.9867 14.8793 82.9661 14.7276 82.9151 14.5849C82.8641 14.4422 82.7837 14.3118 82.6791 14.2019C82.5745 14.0921 82.4481 14.0053 82.3079 13.9471C82.1676 13.8888 82.0168 13.8605 81.8649 13.8639C81.7107 13.8618 81.5577 13.8905 81.4149 13.9484C81.272 14.0063 81.1423 14.0921 81.0333 14.2009C80.9242 14.3096 80.8382 14.4391 80.7802 14.5815C80.7222 14.724 80.6935 14.8766 80.6956 15.0304H80.6956Z" fill="white"/>
<path d="M87.6074 13.1943H89.6434C90.5267 13.1943 91.0448 13.6406 91.0448 14.3393C91.0462 14.561 90.9711 14.7765 90.8323 14.9496C90.6934 15.1228 90.4991 15.2431 90.2819 15.2905V15.3608C90.5456 15.3774 90.7929 15.4944 90.9726 15.6876C91.1523 15.8808 91.2507 16.1354 91.2475 16.3989C91.2475 17.1845 90.655 17.6972 89.664 17.6972H87.6074V13.1943ZM88.4908 13.8765V15.0425H89.3741C89.9127 15.0425 90.1703 14.8359 90.1703 14.4551C90.1703 14.104 89.946 13.8765 89.473 13.8765L88.4908 13.8765ZM88.4908 15.6958V17.0151H89.5475C90.0743 17.0151 90.3564 16.7832 90.3564 16.3574C90.3564 15.9067 90.0371 15.6958 89.4358 15.6958L88.4908 15.6958Z" fill="white"/>
</svg>
