<svg width="126" height="38" viewBox="0 0 126 38" fill="none" xmlns="http://www.w3.org/2000/svg">
<path d="M115.966 0.0001235H10.0395C9.6534 0.0001235 9.27192 0.0001235 8.88683 0.00202349C8.56447 0.00392349 8.24467 0.00944297 7.91922 0.0140885C7.21218 0.0215951 6.5068 0.0777157 5.80922 0.181962C5.11261 0.288479 4.43783 0.489292 3.80769 0.77761C3.17832 1.06837 2.60325 1.44618 2.10334 1.89733C1.6008 2.34722 1.1819 2.86723 0.862733 3.43736C0.54269 4.00636 0.320771 4.6161 0.20464 5.24551C0.0874062 5.87413 0.0243214 6.51 0.0159522 7.14741C0.0061808 7.43868 0.00514891 7.73091 0 8.02222V29.9807C0.00514891 30.2757 0.0061808 30.5614 0.0159522 30.8565C0.024324 31.4939 0.0874088 32.1297 0.20464 32.7583C0.32045 33.3881 0.542382 33.9982 0.862733 34.5674C1.18175 35.1357 1.60071 35.6536 2.10334 36.101C2.60135 36.5541 3.1768 36.9322 3.80769 37.2207C4.43782 37.5098 5.11253 37.7118 5.80922 37.82C6.50692 37.9234 7.21223 37.9795 7.91922 37.9879C8.24467 37.9944 8.56447 37.9981 8.88683 37.9981C9.27191 38 9.65342 38 10.0395 38H115.966C116.345 38 116.729 38 117.108 37.9981C117.428 37.9981 117.757 37.9944 118.078 37.9879C118.784 37.98 119.488 37.9238 120.184 37.82C120.883 37.7111 121.56 37.5091 122.193 37.2207C122.824 36.932 123.399 36.554 123.896 36.101C124.398 35.6518 124.817 35.1343 125.14 34.5674C125.458 33.9977 125.678 33.3877 125.792 32.7583C125.91 32.1296 125.975 31.4939 125.988 30.8565C125.992 30.5614 125.992 30.2757 125.992 29.9807C126 29.6356 126 29.2923 126 28.9416V9.05942C126 8.71152 126 8.3664 125.992 8.02222C125.992 7.73091 125.992 7.43868 125.988 7.14737C125.975 6.5099 125.91 5.87418 125.792 5.24547C125.678 4.61643 125.458 4.00674 125.14 3.43733C124.49 2.29455 123.46 1.36434 122.193 0.777525C121.56 0.489911 120.883 0.289151 120.184 0.181877C119.488 0.0771709 118.784 0.0210308 118.078 0.0139555C117.757 0.00931947 117.428 0.00375249 117.108 0.00189999C116.729 0 116.345 0 115.966 0V0.0001235Z" fill="#A6A6A6"/>
<path d="M8.89265 37.1684C8.57184 37.1684 8.25878 37.1647 7.94048 37.1583C7.28111 37.1505 6.62327 37.0987 5.97237 37.0033C5.36545 36.909 4.77749 36.7336 4.22791 36.4828C3.68337 36.2341 3.18671 35.9081 2.75695 35.5171C2.32096 35.1307 1.95799 34.6825 1.6824 34.1904C1.40378 33.695 1.21096 33.1641 1.11065 32.6161C1.00233 32.0272 0.943723 31.4317 0.935337 30.8348C0.928661 30.6345 0.919922 29.9674 0.919922 29.9674V8.0219C0.919922 8.0219 0.92923 7.36507 0.93539 7.17209C0.943419 6.57614 1.00169 5.98161 1.10968 5.39363C1.21018 4.84408 1.40315 4.3116 1.68192 3.81464C1.95649 3.32284 2.31745 2.87437 2.75081 2.4866C3.18368 2.09514 3.68193 1.76738 4.2274 1.51525C4.77572 1.26529 5.36255 1.0911 5.96826 0.998511C6.62129 0.902149 7.28141 0.850051 7.94307 0.842654L8.89317 0.831055H117.103L118.064 0.84312C118.72 0.850149 119.374 0.901782 120.021 0.99758C120.633 1.09133 121.226 1.26674 121.781 1.51804C122.873 2.02614 123.763 2.83 124.324 3.81696C124.598 4.31049 124.788 4.83862 124.887 5.38343C124.996 5.97623 125.058 6.57544 125.07 7.17627C125.073 7.44531 125.073 7.7343 125.073 8.0219C125.081 8.37815 125.081 8.71724 125.081 9.0591V28.9413C125.081 29.2864 125.081 29.6232 125.073 29.9627C125.073 30.2717 125.073 30.5547 125.069 30.8459C125.057 31.436 124.997 32.0246 124.889 32.6067C124.791 33.1587 124.599 33.6938 124.32 34.1932C124.043 34.68 123.682 35.1243 123.251 35.5096C122.821 35.9027 122.323 36.2307 121.778 36.481C121.225 36.7337 120.632 36.9098 120.021 37.0033C119.37 37.0992 118.713 37.151 118.053 37.1583C117.745 37.1647 117.422 37.1684 117.108 37.1684L115.967 37.1703L8.89265 37.1684Z" fill="black"/>
<path d="M27.8408 19.3013C27.8516 18.4666 28.0739 17.6483 28.4871 16.9223C28.9003 16.1963 29.4909 15.5864 30.204 15.1492C29.751 14.5041 29.1534 13.9731 28.4586 13.5986C27.7638 13.224 26.991 13.0162 26.2016 12.9916C24.5177 12.8153 22.8851 13.9964 22.027 13.9964C21.1523 13.9964 19.8311 13.0091 18.4084 13.0383C17.4882 13.0679 16.5913 13.3348 15.8052 13.8128C15.0191 14.2909 14.3706 14.9638 13.9229 15.7661C11.9835 19.1145 13.4301 24.0356 15.2879 26.7422C16.2174 28.0675 17.3038 29.548 18.7252 29.4955C20.1162 29.4379 20.6356 28.611 22.3146 28.611C23.9781 28.611 24.4655 29.4955 25.9157 29.4621C27.4083 29.4379 28.3487 28.1308 29.2456 26.7929C29.9134 25.8486 30.4273 24.8049 30.7682 23.7004C29.9011 23.3347 29.1611 22.7225 28.6405 21.9402C28.12 21.158 27.8418 20.2402 27.8408 19.3013Z" fill="white"/>
<path d="M25.1033 11.2113C25.9171 10.2371 26.3181 8.98493 26.221 7.7207C24.9777 7.85092 23.8292 8.44348 23.0044 9.38031C22.6011 9.83797 22.2923 10.3704 22.0955 10.9472C21.8987 11.5239 21.8178 12.1337 21.8575 12.7417C22.4794 12.7481 23.0946 12.6137 23.6568 12.3486C24.219 12.0835 24.7136 11.6946 25.1033 11.2113Z" fill="white"/>
<path d="M45.4235 26.1396H40.6768L39.5369 29.4961H37.5264L42.0224 17.0781H44.1112L48.6072 29.4961H46.5624L45.4235 26.1396ZM41.1684 24.5908H44.9309L43.0761 19.1436H43.0242L41.1684 24.5908Z" fill="white"/>
<path d="M58.316 24.9694C58.316 27.7829 56.8059 29.5905 54.527 29.5905C53.9498 29.6206 53.3757 29.488 52.8705 29.2079C52.3652 28.9277 51.9494 28.5114 51.6704 28.0065H51.6273V32.4909H49.7637V20.4421H51.5676V21.948H51.6019C51.8936 21.4455 52.3165 21.0313 52.8256 20.7495C53.3347 20.4676 53.9108 20.3287 54.4928 20.3474C56.797 20.3474 58.316 22.1638 58.316 24.9694ZM56.4004 24.9694C56.4004 23.1364 55.4505 21.9314 54.0011 21.9314C52.5772 21.9314 51.6195 23.1618 51.6195 24.9694C51.6195 26.7937 52.5772 28.0153 54.0011 28.0153C55.4505 28.0153 56.4004 26.819 56.4004 24.9694Z" fill="white"/>
<path d="M68.3101 24.9694C68.3101 27.7829 66.8 29.5905 64.5212 29.5905C63.9439 29.6206 63.3698 29.488 62.8646 29.2079C62.3594 28.9277 61.9435 28.5114 61.6646 28.0065H61.6214V32.4909H59.7578V20.4421H61.5617V21.9479H61.596C61.8877 21.4455 62.3106 21.0313 62.8197 20.7495C63.3288 20.4676 63.9049 20.3287 64.4869 20.3474C66.7912 20.3474 68.3101 22.1638 68.3101 24.9694ZM66.3946 24.9694C66.3946 23.1364 65.4447 21.9313 63.9953 21.9313C62.5714 21.9313 61.6136 23.1618 61.6136 24.9694C61.6136 26.7936 62.5714 28.0153 63.9953 28.0153C65.4447 28.0153 66.3946 26.819 66.3946 24.9694H66.3946Z" fill="white"/>
<path d="M74.9126 26.0362C75.0507 27.2676 76.2503 28.0761 77.8897 28.0761C79.4605 28.0761 80.5906 27.2676 80.5906 26.1572C80.5906 25.1933 79.909 24.6162 78.2951 24.2207L76.6812 23.833C74.3946 23.2822 73.333 22.2158 73.333 20.4853C73.333 18.3428 75.2054 16.8711 77.8642 16.8711C80.4956 16.8711 82.2995 18.3428 82.3602 20.4853H80.4789C80.3663 19.2461 79.339 18.498 77.8378 18.498C76.3365 18.498 75.3092 19.2549 75.3092 20.3564C75.3092 21.2344 75.9653 21.751 77.5704 22.1464L78.9424 22.4824C81.4974 23.0849 82.559 24.1084 82.559 25.9247C82.559 28.248 80.7032 29.7031 77.7516 29.7031C74.9899 29.7031 73.1253 28.2822 73.0049 26.0361L74.9126 26.0362Z" fill="white"/>
<path d="M86.5812 18.2998V20.4424H88.3077V21.9141H86.5812V26.9052C86.5812 27.6806 86.9269 28.042 87.6858 28.042C87.8908 28.0384 88.0954 28.024 88.2989 27.999V29.4618C87.9577 29.5254 87.6108 29.5542 87.2638 29.5478C85.4256 29.5478 84.7088 28.8593 84.7088 27.1035V21.9141H83.3887V20.4424H84.7087V18.2998H86.5812Z" fill="white"/>
<path d="M89.3086 24.9697C89.3086 22.1211 90.991 20.3311 93.6146 20.3311C96.247 20.3311 97.9216 22.121 97.9216 24.9697C97.9216 27.8261 96.2558 29.6084 93.6146 29.6084C90.9743 29.6084 89.3086 27.8261 89.3086 24.9697ZM96.0227 24.9697C96.0227 23.0156 95.1247 21.8623 93.6146 21.8623C92.1045 21.8623 91.2075 23.0244 91.2075 24.9697C91.2075 26.9316 92.1045 28.0761 93.6146 28.0761C95.1247 28.0761 96.0227 26.9316 96.0227 24.9697H96.0227Z" fill="white"/>
<path d="M99.458 20.442H101.235V21.983H101.279C101.399 21.5017 101.682 21.0764 102.079 20.7785C102.477 20.4806 102.965 20.3284 103.462 20.3473C103.677 20.3465 103.891 20.3698 104.101 20.4166V22.1549C103.83 22.0723 103.547 22.0343 103.264 22.0426C102.993 22.0316 102.723 22.0792 102.472 22.1821C102.222 22.285 101.997 22.4407 101.812 22.6386C101.628 22.8365 101.488 23.0719 101.404 23.3286C101.319 23.5852 101.291 23.8571 101.322 24.1256V29.4957H99.458L99.458 20.442Z" fill="white"/>
<path d="M112.693 26.8369C112.442 28.4804 110.837 29.6084 108.783 29.6084C106.142 29.6084 104.503 27.8437 104.503 25.0127C104.503 22.1728 106.151 20.3311 108.705 20.3311C111.217 20.3311 112.797 22.0517 112.797 24.7969V25.4336H106.384V25.5459C106.355 25.8791 106.396 26.2147 106.507 26.5306C106.617 26.8464 106.794 27.1352 107.025 27.3778C107.256 27.6203 107.536 27.8111 107.847 27.9374C108.157 28.0637 108.491 28.1226 108.827 28.1103C109.267 28.1515 109.709 28.0498 110.087 27.8203C110.464 27.5909 110.758 27.246 110.923 26.8369L112.693 26.8369ZM106.393 24.1348H110.932C110.949 23.8352 110.903 23.5353 110.798 23.2541C110.693 22.9729 110.531 22.7164 110.322 22.5006C110.113 22.2849 109.861 22.1145 109.583 22.0003C109.305 21.8861 109.006 21.8305 108.705 21.8369C108.402 21.8351 108.101 21.8932 107.82 22.008C107.539 22.1227 107.284 22.2918 107.069 22.5054C106.854 22.7191 106.684 22.973 106.568 23.2527C106.452 23.5323 106.392 23.8321 106.393 24.1348V24.1348Z" fill="white"/>
<path d="M39.8379 10.2534H40.638C40.7757 10.2705 40.9155 10.259 41.0485 10.2195C41.1816 10.1801 41.305 10.1136 41.411 10.0242C41.517 9.93484 41.6032 9.82456 41.6644 9.70029C41.7255 9.57603 41.7601 9.44049 41.7661 9.30221C41.7661 8.75193 41.3509 8.39646 40.6468 8.39646C40.5057 8.3768 40.362 8.38553 40.2244 8.42213C40.0867 8.45874 39.9578 8.52249 39.8452 8.6096C39.7327 8.69672 39.6388 8.80544 39.5691 8.92935C39.4993 9.05325 39.4552 9.18983 39.4393 9.33102H38.5608C38.576 9.07473 38.6438 8.82427 38.7602 8.59526C38.8766 8.36625 39.039 8.16359 39.2374 7.99988C39.4357 7.83618 39.6657 7.71494 39.9131 7.64372C40.1604 7.5725 40.4198 7.55282 40.6752 7.58591C41.8533 7.58591 42.6828 8.24362 42.6828 9.19039C42.6855 9.50757 42.5791 9.8161 42.3813 10.0645C42.1835 10.3128 41.9062 10.486 41.5957 10.5551V10.6255C41.9638 10.6417 42.3104 10.8026 42.5598 11.073C42.8091 11.3434 42.941 11.7012 42.9266 12.0683C42.8994 12.3322 42.8196 12.588 42.6919 12.8208C42.5643 13.0535 42.3913 13.2585 42.1832 13.4237C41.975 13.5889 41.7359 13.711 41.4798 13.7829C41.2237 13.8548 40.9558 13.875 40.6918 13.8422C40.4273 13.8782 40.1582 13.8607 39.9006 13.7907C39.6429 13.7208 39.4021 13.5998 39.1924 13.435C38.9826 13.2703 38.8083 13.0651 38.6798 12.8317C38.5513 12.5983 38.4712 12.3415 38.4443 12.0766H39.3365C39.3903 12.6474 39.9162 13.0156 40.6918 13.0156C41.4674 13.0156 41.9737 12.6021 41.9737 12.019C41.9737 11.4277 41.4968 11.0635 40.6634 11.0635H39.8379V10.2534Z" fill="white"/>
<path d="M43.9414 12.4238C43.9414 11.6133 44.5476 11.146 45.6209 11.0796L46.8441 11.0093V10.6206C46.8441 10.145 46.5297 9.87646 45.9196 9.87646C45.4221 9.87646 45.0784 10.0586 44.9785 10.3769H44.1157C44.2068 9.60351 44.9374 9.10742 45.9617 9.10742C47.0938 9.10742 47.7323 9.66942 47.7323 10.6206V13.6972H46.8734V13.0644H46.8029C46.6598 13.2914 46.4589 13.4765 46.2206 13.6007C45.9823 13.7249 45.7152 13.7838 45.4466 13.7714C45.257 13.7911 45.0654 13.7709 44.8842 13.7122C44.7029 13.6535 44.536 13.5576 44.3942 13.4306C44.2524 13.3037 44.1388 13.1485 44.0608 12.9751C43.9828 12.8016 43.9422 12.6139 43.9414 12.4238ZM46.8441 12.039V11.6626L45.7413 11.7329C45.1195 11.7744 44.8374 11.9853 44.8374 12.3823C44.8374 12.7876 45.19 13.0234 45.6748 13.0234C45.8168 13.0378 45.9603 13.0235 46.0967 12.9814C46.2331 12.9393 46.3596 12.8703 46.4687 12.7784C46.5778 12.6866 46.6672 12.5738 46.7317 12.4468C46.7962 12.3197 46.8344 12.1811 46.8441 12.039Z" fill="white"/>
<path d="M50.0962 9.94336V13.6982H49.2051V9.19531H52.1783V9.94331L50.0962 9.94336Z" fill="white"/>
<path d="M57.5792 11.4448C57.5792 12.8754 56.8535 13.7724 55.7136 13.7724C55.4338 13.7915 55.1543 13.7304 54.9081 13.5964C54.662 13.4624 54.4593 13.2611 54.324 13.0161H54.2535V15.1953H53.3623V9.19527H54.2202V9.93944H54.2868C54.4245 9.68588 54.6298 9.47522 54.8801 9.33072C55.1303 9.18621 55.4157 9.11349 55.7048 9.12059C56.8535 9.12056 57.5792 10.0136 57.5792 11.4448ZM56.6626 11.4448C56.6626 10.4936 56.2111 9.9189 55.4561 9.9189C54.706 9.9189 54.2368 10.5058 54.2368 11.4487C54.2368 12.3872 54.7059 12.9746 55.4521 12.9746C56.2111 12.9745 56.6626 12.3998 56.6626 11.4448Z" fill="white"/>
<path d="M58.766 15.311V14.5459C58.8624 14.5581 58.9596 14.5637 59.0568 14.5625C59.2467 14.5765 59.435 14.5201 59.5858 14.4041C59.7365 14.2882 59.839 14.1208 59.8735 13.9341L59.9401 13.7148L58.3057 9.19531H59.2762L60.4083 12.772H60.4788L61.6069 9.19531H62.552L60.8686 13.8843C60.4827 14.98 60.0557 15.3315 59.1352 15.3315C59.0607 15.3315 58.8492 15.3232 58.766 15.311Z" fill="white"/>
<path d="M63.2461 12.4195H64.1333C64.2205 12.8165 64.5936 13.0235 65.1156 13.0235C65.709 13.0235 66.0733 12.7628 66.0733 12.3575C66.0733 11.9234 65.7463 11.7164 65.1156 11.7164H64.4399V11.026H65.1038C65.6425 11.026 65.9167 10.8195 65.9167 10.443C65.9167 10.1124 65.6513 9.85999 65.1038 9.85999C64.6054 9.85999 64.2411 10.0709 64.1833 10.4264H63.3244C63.3886 10.0179 63.611 9.65093 63.9438 9.40429C64.2766 9.15766 64.6931 9.05111 65.1038 9.10756C66.1771 9.10756 66.7912 9.59144 66.7912 10.3522C66.7962 10.564 66.7281 10.7712 66.5984 10.939C66.4686 11.1068 66.285 11.2251 66.0782 11.2741V11.3444C66.3244 11.376 66.5503 11.4967 66.7131 11.6835C66.8759 11.8702 66.9644 12.1101 66.9616 12.3575C66.9616 13.2135 66.231 13.7799 65.1156 13.7799C64.1294 13.7799 63.3284 13.3292 63.2461 12.4195Z" fill="white"/>
<path d="M68.2451 13.6973V9.19434H69.1284V12.2915H69.199L71.28 9.19435H72.1633V13.6973H71.28V10.5835H71.2134L69.1284 13.6973L68.2451 13.6973Z" fill="white"/>
<path d="M77.0271 9.94331H75.6051V13.6982H74.713V9.94331H73.291V9.19531H77.0271V9.94331Z" fill="white"/>
<path d="M81.8304 12.4815C81.7089 12.893 81.4464 13.2489 81.0886 13.487C80.7308 13.7252 80.3004 13.8303 79.8728 13.7842C79.5753 13.7921 79.2796 13.7353 79.0063 13.6177C78.7331 13.5002 78.4887 13.3248 78.2903 13.1036C78.0918 12.8825 77.944 12.6209 77.857 12.3371C77.7701 12.0533 77.7462 11.754 77.7868 11.46C77.7472 11.1651 77.7716 10.8652 77.8583 10.5805C77.9451 10.2959 78.0921 10.0331 78.2895 9.81003C78.487 9.58696 78.7301 9.40879 79.0026 9.28758C79.2751 9.16637 79.5705 9.10496 79.8688 9.1075C81.1253 9.1075 81.8842 9.9635 81.8842 11.3775V11.6876H78.6956V11.7374C78.6815 11.9027 78.7022 12.0691 78.7564 12.2259C78.8107 12.3827 78.8972 12.5265 79.0104 12.648C79.1237 12.7695 79.2612 12.866 79.4141 12.9313C79.567 12.9967 79.7319 13.0294 79.8982 13.0274C80.1112 13.0528 80.327 13.0144 80.5182 12.9172C80.7093 12.82 80.8671 12.6684 80.9715 12.4815L81.8304 12.4815ZM78.6956 11.0304H80.9754C80.9867 10.8793 80.9661 10.7276 80.9151 10.5849C80.8641 10.4422 80.7837 10.3118 80.6791 10.2019C80.5745 10.0921 80.4481 10.0053 80.3079 9.94705C80.1676 9.88883 80.0168 9.86049 79.8649 9.86386C79.7107 9.86176 79.5577 9.89051 79.4149 9.9484C79.272 10.0063 79.1423 10.0921 79.0333 10.2009C78.9242 10.3096 78.8382 10.4391 78.7802 10.5815C78.7222 10.724 78.6935 10.8766 78.6956 11.0304H78.6956Z" fill="white"/>
<path d="M85.6074 9.19434H87.6434C88.5267 9.19434 89.0448 9.64062 89.0448 10.3393C89.0462 10.561 88.9711 10.7765 88.8323 10.9496C88.6934 11.1228 88.4991 11.2431 88.2819 11.2905V11.3608C88.5456 11.3774 88.7929 11.4944 88.9726 11.6876C89.1523 11.8808 89.2507 12.1354 89.2475 12.3989C89.2475 13.1845 88.655 13.6972 87.664 13.6972H85.6074V9.19434ZM86.4908 9.87646V11.0425H87.3741C87.9127 11.0425 88.1703 10.8359 88.1703 10.4551C88.1703 10.104 87.946 9.87645 87.473 9.87645L86.4908 9.87646ZM86.4908 11.6958V13.0151H87.5475C88.0743 13.0151 88.3564 12.7832 88.3564 12.3574C88.3564 11.9067 88.0371 11.6958 87.4358 11.6958L86.4908 11.6958Z" fill="white"/>
</svg>
