<svg width="130" height="46" viewBox="0 0 130 46" fill="none" xmlns="http://www.w3.org/2000/svg">
<path d="M127.299 37.2028C127.299 39.1426 125.695 40.7139 123.711 40.7139H6.29192C4.30887 40.7139 2.69922 39.1426 2.69922 37.2028V9.20316C2.69922 7.26428 4.30887 5.6875 6.29192 5.6875H123.71C125.695 5.6875 127.298 7.26428 127.298 9.20316L127.299 37.2028Z" fill="black"/>
<path d="M123.333 5.72953C125.494 5.72953 127.252 7.44374 127.252 9.55039V36.8504C127.252 38.957 125.494 40.6713 123.333 40.6713H6.66667C4.506 40.6713 2.74783 38.957 2.74783 36.8504V9.55039C2.74783 7.44374 4.506 5.72953 6.66667 5.72953H123.333ZM123.333 5.00039H6.66667C4.10117 5.00039 2 7.04903 2 9.55039V36.8504C2 39.3518 4.10117 41.4004 6.66667 41.4004H123.333C125.899 41.4004 128 39.3518 128 36.8504V9.55039C128 7.04903 125.899 5.00039 123.333 5.00039Z" fill="#A6A6A6"/>
<path d="M30.1188 23.0042C30.0918 20.0712 32.5819 18.6444 32.6958 18.5779C31.2855 16.5732 29.0996 16.2993 28.3315 16.2775C26.4956 16.0891 24.7148 17.3485 23.7796 17.3485C22.8258 17.3485 21.3856 16.2957 19.8335 16.3266C17.8362 16.3566 15.9676 17.4841 14.9428 19.235C12.8279 22.8049 14.4052 28.051 16.4315 30.9366C17.4451 32.3499 18.6295 33.9278 20.1798 33.8723C21.6964 33.8113 22.263 32.9295 24.0932 32.9295C25.9067 32.9295 26.4387 33.8723 28.0198 33.8368C29.6475 33.8113 30.6723 32.4172 31.6504 30.9912C32.8218 29.3714 33.2922 27.7762 33.3108 27.6943C33.2726 27.6816 30.1496 26.5195 30.1188 23.0042Z" fill="white"/>
<path d="M27.1322 14.3792C27.9479 13.3846 28.506 12.0314 28.3511 10.6582C27.1704 10.7092 25.6939 11.4545 24.8436 12.4272C24.0914 13.2845 23.4194 14.6895 23.593 16.0108C24.9192 16.1073 26.281 15.3584 27.1322 14.3792Z" fill="white"/>
<path d="M52.07 33.6689H49.9504L48.7893 30.1117H44.7536L43.6476 33.6689H41.584L45.5824 21.5586H48.052L52.07 33.6689ZM48.4393 28.6193L47.3893 25.457C47.2783 25.134 47.0701 24.3732 46.763 23.1757H46.7257C46.6034 23.6907 46.4065 24.4515 46.1358 25.457L45.1045 28.6193H48.4393Z" fill="white"/>
<path d="M62.3515 29.1959C62.3515 30.681 61.9399 31.8549 61.1167 32.7167C60.3794 33.4838 59.4638 33.8669 58.3708 33.8669C57.1911 33.8669 56.3436 33.4538 55.8275 32.6275H55.7902V37.2275H53.8003V27.8118C53.8003 26.8781 53.7751 25.9199 53.7266 24.9371H55.4766L55.5876 26.3212H55.625C56.2886 25.2783 57.2956 24.7578 58.6471 24.7578C59.7036 24.7578 60.5856 25.1646 61.2912 25.979C61.9987 26.7944 62.3515 27.8664 62.3515 29.1959ZM60.3243 29.2669C60.3243 28.4169 60.1283 27.7162 59.7344 27.1648C59.3042 26.5896 58.7264 26.3021 58.0022 26.3021C57.5112 26.3021 57.0651 26.4622 56.6666 26.778C56.2671 27.0965 56.0058 27.5124 55.8835 28.0274C55.8219 28.2677 55.7911 28.4642 55.7911 28.6189V30.0749C55.7911 30.7101 55.9908 31.2461 56.3903 31.6838C56.7898 32.1215 57.3087 32.3399 57.9471 32.3399C58.6966 32.3399 59.2799 32.0578 59.6971 31.4955C60.1152 30.9322 60.3243 30.1896 60.3243 29.2669Z" fill="white"/>
<path d="M72.6543 29.1959C72.6543 30.681 72.2427 31.8549 71.4185 32.7167C70.6821 33.4838 69.7665 33.8669 68.6736 33.8669C67.4939 33.8669 66.6464 33.4538 66.1312 32.6275H66.0939V37.2275H64.104V27.8118C64.104 26.8781 64.0788 25.9199 64.0303 24.9371H65.7803L65.8913 26.3212H65.9287C66.5913 25.2783 67.5984 24.7578 68.9508 24.7578C70.0064 24.7578 70.8884 25.1646 71.5959 25.979C72.3005 26.7944 72.6543 27.8664 72.6543 29.1959ZM70.6271 29.2669C70.6271 28.4169 70.4301 27.7162 70.0363 27.1648C69.606 26.5896 69.0301 26.3021 68.3049 26.3021C67.8131 26.3021 67.3679 26.4622 66.9684 26.778C66.5689 27.0965 66.3085 27.5124 66.1863 28.0274C66.1256 28.2677 66.0939 28.4642 66.0939 28.6189V30.0749C66.0939 30.7101 66.2936 31.2461 66.6912 31.6838C67.0907 32.1206 67.6096 32.3399 68.2499 32.3399C68.9993 32.3399 69.5827 32.0578 69.9999 31.4955C70.418 30.9322 70.6271 30.1896 70.6271 29.2669Z" fill="white"/>
<path d="M84.1714 30.2725C84.1714 31.3026 83.8046 32.1407 83.0682 32.7877C82.259 33.4948 81.1325 33.8479 79.6849 33.8479C78.3484 33.8479 77.2769 33.5967 76.4658 33.0935L76.9269 31.4764C77.8005 31.9915 78.759 32.2499 79.8034 32.2499C80.5529 32.2499 81.1362 32.0843 81.5553 31.7549C81.9725 31.4254 82.1806 30.9832 82.1806 30.4317C82.1806 29.9403 82.0089 29.5263 81.6645 29.1905C81.322 28.8547 80.7498 28.5426 79.9509 28.2541C77.7762 27.4633 76.6898 26.3049 76.6898 24.7815C76.6898 23.786 77.0706 22.9697 77.8332 22.3345C78.5929 21.6984 79.6065 21.3809 80.874 21.3809C82.0042 21.3809 82.9432 21.5729 83.6926 21.956L83.1952 23.5376C82.4952 23.1663 81.7037 22.9806 80.818 22.9806C80.118 22.9806 79.571 23.149 79.179 23.4839C78.8477 23.7833 78.6816 24.1482 78.6816 24.5804C78.6816 25.0591 78.871 25.4549 79.2518 25.7661C79.5832 26.0537 80.1852 26.3649 81.0588 26.7007C82.1274 27.1202 82.9124 27.6107 83.4173 28.1731C83.9204 28.7337 84.1714 29.4353 84.1714 30.2725Z" fill="white"/>
<path d="M90.7503 26.3926H88.557V30.6322C88.557 31.7106 88.9434 32.2493 89.718 32.2493C90.0736 32.2493 90.3686 32.2193 90.6019 32.1592L90.657 33.6325C90.265 33.7754 89.7488 33.8473 89.1095 33.8473C88.3236 33.8473 87.7095 33.6134 87.2662 33.1466C86.8247 32.6788 86.6026 31.8944 86.6026 30.7924V26.3907H85.2959V24.9347H86.6026V23.3359L88.557 22.7607V24.9347H90.7503V26.3926Z" fill="white"/>
<path d="M100.646 29.2305C100.646 30.5727 100.253 31.6747 99.4667 32.5365C98.6426 33.4237 97.5487 33.866 96.1851 33.866C94.871 33.866 93.8247 33.441 93.0444 32.5911C92.2642 31.7412 91.874 30.6683 91.874 29.3752C91.874 28.022 92.2754 26.9136 93.0808 26.0518C93.8844 25.1892 94.969 24.7578 96.3326 24.7578C97.6467 24.7578 98.7042 25.1828 99.5022 26.0336C100.266 26.859 100.646 27.9246 100.646 29.2305ZM98.5819 29.2933C98.5819 28.4879 98.4055 27.7972 98.048 27.2212C97.6308 26.5241 97.0344 26.1765 96.2616 26.1765C95.4618 26.1765 94.8542 26.525 94.437 27.2212C94.0795 27.7981 93.9031 28.4997 93.9031 29.3297C93.9031 30.135 94.0795 30.8257 94.437 31.4008C94.8672 32.0979 95.4683 32.4455 96.2439 32.4455C97.0036 32.4455 97.6 32.0906 98.0303 31.3826C98.3971 30.7957 98.5819 30.0977 98.5819 29.2933Z" fill="white"/>
<path d="M107.114 26.6433C106.917 26.6078 106.707 26.5896 106.487 26.5896C105.787 26.5896 105.245 26.8472 104.865 27.3631C104.533 27.8181 104.367 28.3933 104.367 29.0876V33.6694H102.378L102.397 27.6871C102.397 26.6806 102.372 25.7643 102.322 24.938H104.055L104.128 26.6088H104.183C104.393 26.0345 104.725 25.5723 105.178 25.2256C105.622 24.9134 106.1 24.7578 106.617 24.7578C106.8 24.7578 106.967 24.7706 107.114 24.7933V26.6433Z" fill="white"/>
<path d="M116.013 28.8899C116.013 29.2375 115.99 29.5305 115.94 29.7699H109.971C109.994 30.6325 110.283 31.2923 110.837 31.7473C111.34 32.1541 111.991 32.3579 112.789 32.3579C113.673 32.3579 114.48 32.2205 115.205 31.9448L115.517 33.2916C114.669 33.6519 113.669 33.8312 112.514 33.8312C111.125 33.8312 110.035 33.4326 109.242 32.6364C108.45 31.8401 108.054 30.7709 108.054 29.4295C108.054 28.1128 108.422 27.0162 109.161 26.1417C109.933 25.208 110.978 24.7412 112.292 24.7412C113.583 24.7412 114.56 25.208 115.224 26.1417C115.749 26.8834 116.013 27.8006 116.013 28.8899ZM114.116 28.3867C114.129 27.8115 113.999 27.3147 113.729 26.8952C113.385 26.3555 112.856 26.0862 112.144 26.0862C111.493 26.0862 110.964 26.3492 110.56 26.877C110.228 27.2965 110.031 27.7997 109.971 28.3858H114.116V28.3867Z" fill="white"/>
<path d="M47.7784 14.1078C47.7784 15.1789 47.449 15.9852 46.791 16.5266C46.1815 17.0262 45.3154 17.2764 44.1935 17.2764C43.6372 17.2764 43.1612 17.2528 42.7627 17.2055V11.3533C43.2826 11.2714 43.8426 11.2295 44.4474 11.2295C45.516 11.2295 46.3215 11.4561 46.8647 11.9093C47.4732 12.4216 47.7784 13.1541 47.7784 14.1078ZM46.7471 14.1342C46.7471 13.4399 46.5586 12.9075 46.1815 12.5363C45.8044 12.1659 45.2538 11.9802 44.5286 11.9802C44.2206 11.9802 43.9583 12.0003 43.7408 12.0421V16.4911C43.8612 16.5093 44.0815 16.5175 44.4016 16.5175C45.1502 16.5175 45.7279 16.3146 46.1348 15.9087C46.5418 15.5029 46.7471 14.9114 46.7471 14.1342Z" fill="white"/>
<path d="M53.2467 15.0444C53.2467 15.7041 53.0535 16.2447 52.6671 16.6687C52.262 17.1046 51.7254 17.3221 51.0552 17.3221C50.4094 17.3221 49.8951 17.1137 49.5115 16.6951C49.1288 16.2774 48.9375 15.7506 48.9375 15.1154C48.9375 14.4511 49.1344 13.906 49.5302 13.4828C49.9259 13.0597 50.4579 12.8477 51.128 12.8477C51.7739 12.8477 52.2928 13.056 52.6858 13.4737C53.0591 13.8796 53.2467 14.4038 53.2467 15.0444ZM52.2322 15.0753C52.2322 14.6795 52.1444 14.3401 51.9699 14.057C51.7646 13.7149 51.4724 13.5438 51.0926 13.5438C50.6996 13.5438 50.401 13.7149 50.1956 14.057C50.0202 14.3401 49.9334 14.6849 49.9334 15.0926C49.9334 15.4885 50.0211 15.8279 50.1956 16.1109C50.4075 16.4531 50.7024 16.6242 51.0832 16.6242C51.4566 16.6242 51.7496 16.4503 51.9606 16.1018C52.1416 15.8133 52.2322 15.4712 52.2322 15.0753Z" fill="white"/>
<path d="M60.5797 12.9336L59.2031 17.2233H58.3071L57.7368 15.3606C57.5921 14.8956 57.4745 14.4333 57.3831 13.9746H57.3653C57.2804 14.446 57.1628 14.9074 57.0116 15.3606L56.4059 17.2233H55.4996L54.2051 12.9336H55.2103L55.7077 14.9729C55.8281 15.4552 55.9271 15.9148 56.0064 16.3497H56.0241C56.0969 15.9912 56.2173 15.5344 56.3872 14.982L57.0116 12.9345H57.8087L58.4069 14.9383C58.5516 15.427 58.6692 15.8975 58.7597 16.3506H58.7868C58.8531 15.9093 58.9529 15.4388 59.0855 14.9383L59.6193 12.9345H60.5797V12.9336Z" fill="white"/>
<path d="M65.6495 17.2246H64.6714V14.7676C64.6714 14.0104 64.3764 13.6319 63.7847 13.6319C63.4944 13.6319 63.2602 13.7356 63.0782 13.944C62.898 14.1524 62.8066 14.3981 62.8066 14.6793V17.2236H61.8284V14.1606C61.8284 13.7838 61.8163 13.3753 61.793 12.933H62.6526L62.6983 13.6037H62.7254C62.8392 13.3953 63.0091 13.2233 63.2322 13.0859C63.4972 12.9257 63.794 12.8447 64.1188 12.8447C64.5295 12.8447 64.8711 12.9739 65.1427 13.2333C65.4806 13.5509 65.6495 14.025 65.6495 14.6547V17.2246Z" fill="white"/>
<path d="M68.3473 17.2239H67.3701V10.9658H68.3473V17.2239Z" fill="white"/>
<path d="M74.1061 15.0444C74.1061 15.7041 73.9129 16.2447 73.5265 16.6687C73.1214 17.1046 72.5838 17.3221 71.9146 17.3221C71.2678 17.3221 70.7535 17.1137 70.3709 16.6951C69.9882 16.2774 69.7969 15.7506 69.7969 15.1154C69.7969 14.4511 69.9938 13.906 70.3895 13.4828C70.7853 13.0597 71.3173 12.8477 71.9865 12.8477C72.6333 12.8477 73.1513 13.056 73.5451 13.4737C73.9185 13.8796 74.1061 14.4038 74.1061 15.0444ZM73.0906 15.0753C73.0906 14.6795 73.0029 14.3401 72.8283 14.057C72.6239 13.7149 72.3309 13.5438 71.9519 13.5438C71.5581 13.5438 71.2594 13.7149 71.055 14.057C70.8795 14.3401 70.7927 14.6849 70.7927 15.0926C70.7927 15.4885 70.8805 15.8279 71.055 16.1109C71.2669 16.4531 71.5618 16.6242 71.9426 16.6242C72.3159 16.6242 72.6081 16.4503 72.819 16.1018C73.001 15.8133 73.0906 15.4712 73.0906 15.0753Z" fill="white"/>
<path d="M78.8395 17.2248H77.9613L77.8885 16.7306H77.8614C77.5609 17.1247 77.1325 17.3221 76.5762 17.3221C76.1609 17.3221 75.8249 17.192 75.5719 16.9336C75.3423 16.6988 75.2275 16.4067 75.2275 16.06C75.2275 15.5358 75.4515 15.1363 75.9023 14.8597C76.3522 14.583 76.985 14.4474 77.7998 14.4538V14.3737C77.7998 13.8086 77.4955 13.5265 76.8861 13.5265C76.4521 13.5265 76.0694 13.633 75.739 13.8441L75.5402 13.218C75.949 12.9714 76.4539 12.8477 77.0494 12.8477C78.1993 12.8477 78.7761 13.4392 78.7761 14.6222V16.2019C78.7761 16.6305 78.7975 16.9718 78.8395 17.2248ZM77.8241 15.7506V15.089C76.7451 15.0708 76.2057 15.3593 76.2057 15.9535C76.2057 16.1773 76.2673 16.3448 76.3933 16.4567C76.5193 16.5686 76.6798 16.6242 76.8711 16.6242C77.0858 16.6242 77.2865 16.5577 77.4694 16.4258C77.6533 16.2929 77.7662 16.1246 77.8082 15.918C77.8185 15.8716 77.8241 15.8152 77.8241 15.7506Z" fill="white"/>
<path d="M84.3982 17.2239H83.5302L83.4845 16.535H83.4574C83.1802 17.0592 82.708 17.3213 82.0444 17.3213C81.5142 17.3213 81.0728 17.1183 80.7228 16.7125C80.3728 16.3066 80.1982 15.7797 80.1982 15.1327C80.1982 14.4384 80.3877 13.876 80.7685 13.4465C81.1372 13.0461 81.5889 12.8459 82.1265 12.8459C82.7173 12.8459 83.1308 13.0397 83.366 13.4283H83.3846V10.9658H84.3637V16.0682C84.3637 16.4859 84.3749 16.8708 84.3982 17.2239ZM83.3846 15.4148V14.6996C83.3846 14.5758 83.3753 14.4757 83.3576 14.3993C83.3025 14.1699 83.184 13.977 83.0038 13.8214C82.8218 13.6658 82.6025 13.5875 82.3496 13.5875C81.9846 13.5875 81.699 13.7286 81.489 14.0116C81.2809 14.2946 81.1754 14.6559 81.1754 15.0972C81.1754 15.5213 81.2753 15.8653 81.476 16.1301C81.6878 16.4122 81.9734 16.5532 82.3309 16.5532C82.652 16.5532 82.9086 16.4358 83.1037 16.2001C83.2922 15.9826 83.3846 15.7206 83.3846 15.4148Z" fill="white"/>
<path d="M92.7633 15.0444C92.7633 15.7041 92.5701 16.2447 92.1837 16.6687C91.7786 17.1046 91.2429 17.3221 90.5718 17.3221C89.9269 17.3221 89.4126 17.1137 89.0281 16.6951C88.6454 16.2774 88.4541 15.7506 88.4541 15.1154C88.4541 14.4511 88.651 13.906 89.0468 13.4828C89.4425 13.0597 89.9745 12.8477 90.6456 12.8477C91.2905 12.8477 91.8104 13.056 92.2024 13.4737C92.5757 13.8796 92.7633 14.4038 92.7633 15.0444ZM91.7497 15.0753C91.7497 14.6795 91.662 14.3401 91.4874 14.057C91.2812 13.7149 90.99 13.5438 90.6092 13.5438C90.2172 13.5438 89.9185 13.7149 89.7122 14.057C89.5368 14.3401 89.45 14.6849 89.45 15.0926C89.45 15.4885 89.5377 15.8279 89.7122 16.1109C89.9241 16.4531 90.219 16.6242 90.5998 16.6242C90.9732 16.6242 91.2672 16.4503 91.4781 16.1018C91.6582 15.8133 91.7497 15.4712 91.7497 15.0753Z" fill="white"/>
<path d="M98.0226 17.2246H97.0454V14.7676C97.0454 14.0104 96.7505 13.6319 96.1578 13.6319C95.8675 13.6319 95.6333 13.7356 95.4522 13.944C95.2711 14.1524 95.1806 14.3981 95.1806 14.6793V17.2236H94.2015V14.1606C94.2015 13.7838 94.1903 13.3753 94.167 12.933H95.0257L95.0714 13.6037H95.0985C95.2133 13.3953 95.3831 13.2233 95.6053 13.0859C95.8713 12.9257 96.1671 12.8447 96.4929 12.8447C96.9026 12.8447 97.2442 12.9739 97.5158 13.2333C97.8546 13.5509 98.0226 14.025 98.0226 14.6547V17.2246Z" fill="white"/>
<path d="M104.605 13.6489H103.528V15.7328C103.528 16.2624 103.72 16.5272 104.099 16.5272C104.274 16.5272 104.42 16.5127 104.534 16.4826L104.56 17.2061C104.366 17.2771 104.113 17.3126 103.8 17.3126C103.414 17.3126 103.113 17.1979 102.896 16.9686C102.677 16.7393 102.569 16.3534 102.569 15.812V13.6489H101.926V12.9346H102.569V12.1483L103.527 11.8662V12.9336H104.604V13.6489H104.605Z" fill="white"/>
<path d="M109.783 17.2239H108.804V14.7851C108.804 14.0161 108.509 13.6312 107.918 13.6312C107.465 13.6312 107.155 13.8542 106.985 14.3001C106.956 14.3938 106.939 14.5085 106.939 14.6431V17.223H105.962V10.9658H106.939V13.5511H106.958C107.266 13.0807 107.707 12.8459 108.279 12.8459C108.684 12.8459 109.02 12.9751 109.286 13.2344C109.617 13.5575 109.783 14.038 109.783 14.6732V17.2239Z" fill="white"/>
<path d="M115.125 14.8764C115.125 15.0474 115.112 15.1912 115.089 15.3086H112.156C112.169 15.7327 112.309 16.0557 112.58 16.2796C112.829 16.4798 113.149 16.5799 113.541 16.5799C113.975 16.5799 114.37 16.5125 114.727 16.3769L114.88 17.0394C114.463 17.216 113.972 17.3042 113.403 17.3042C112.722 17.3042 112.185 17.1086 111.797 16.7173C111.407 16.326 111.214 15.8009 111.214 15.1421C111.214 14.4951 111.394 13.9563 111.757 13.5268C112.136 13.0682 112.648 12.8389 113.295 12.8389C113.928 12.8389 114.409 13.0682 114.733 13.5268C114.996 13.8908 115.125 14.3413 115.125 14.8764ZM114.192 14.6297C114.2 14.3467 114.135 14.1029 114.003 13.8972C113.833 13.6324 113.574 13.4995 113.224 13.4995C112.905 13.4995 112.645 13.6287 112.446 13.8881C112.283 14.0947 112.187 14.3413 112.156 14.6297H114.192Z" fill="white"/>
</svg>
