<svg width="130" height="46" viewBox="0 0 130 46" fill="none" xmlns="http://www.w3.org/2000/svg">
<path d="M123.333 41.4502H6.66667C4.10117 41.4502 2 39.3987 2 36.8939V9.55636C2 7.05155 4.10117 5.0001 6.66667 5.0001H123.333C125.899 5.0001 128 7.05155 128 9.55636V36.8939C128 39.3987 125.899 41.4502 123.333 41.4502Z" fill="black"/>
<path d="M123.333 5.73023C125.494 5.73023 127.252 7.44681 127.252 9.55636V36.8939C127.252 39.0035 125.494 40.7201 123.333 40.7201H6.66667C4.506 40.7201 2.74783 39.0035 2.74783 36.8939V9.55636C2.74783 7.44681 4.506 5.73023 6.66667 5.73023H123.333ZM123.333 5.0001H6.66667C4.10117 5.0001 2 7.05155 2 9.55636V36.8939C2 39.3987 4.10117 41.4502 6.66667 41.4502H123.333C125.899 41.4502 128 39.3987 128 36.8939V9.55636C128 7.05155 125.899 5.0001 123.333 5.0001Z" fill="#A6A6A6"/>
<path d="M46.2564 14.3348C46.2564 15.0956 46.023 15.7051 45.5634 16.1595C45.0349 16.6983 44.3465 16.9694 43.503 16.9694C42.6969 16.9694 42.0085 16.6938 41.4439 16.1504C40.878 15.5991 40.5957 14.9225 40.5957 14.1126C40.5957 13.3028 40.878 12.6262 41.4439 12.0794C42.0085 11.5315 42.6969 11.2559 43.503 11.2559C43.9044 11.2559 44.287 11.3367 44.6522 11.4871C45.0162 11.6386 45.3125 11.8436 45.5272 12.0965L45.0395 12.5772C44.665 12.1455 44.1552 11.9325 43.503 11.9325C42.915 11.9325 42.4052 12.1329 41.9724 12.5373C41.5442 12.9428 41.3295 13.4679 41.3295 14.1126C41.3295 14.7573 41.5442 15.287 41.9724 15.6925C42.4052 16.0923 42.915 16.2974 43.503 16.2974C44.1272 16.2974 44.6522 16.0923 45.0664 15.688C45.3394 15.4203 45.4945 15.0512 45.5354 14.5797H43.503V13.9213H46.2144C46.247 14.0637 46.2564 14.2015 46.2564 14.3348V14.3348Z" fill="white" stroke="white" stroke-width="0.16" stroke-miterlimit="10"/>
<path d="M50.5579 12.0527H48.011V13.7841H50.307V14.4425H48.011V16.1739H50.5579V16.8448H47.29V11.3818H50.5579V12.0527Z" fill="white" stroke="white" stroke-width="0.16" stroke-miterlimit="10"/>
<path d="M53.5937 16.8448H52.8727V12.0527H51.3105V11.3818H55.157V12.0527H53.5937V16.8448V16.8448Z" fill="white" stroke="white" stroke-width="0.16" stroke-miterlimit="10"/>
<path d="M57.9395 16.8448V11.3818H58.6593V16.8448H57.9395Z" fill="white" stroke="white" stroke-width="0.16" stroke-miterlimit="10"/>
<path d="M61.8505 16.8448H61.1354V12.0527H59.5674V11.3818H63.4185V12.0527H61.8505V16.8448Z" fill="white" stroke="white" stroke-width="0.16" stroke-miterlimit="10"/>
<path d="M70.702 16.1413C70.1502 16.6938 69.4665 16.9694 68.651 16.9694C67.8308 16.9694 67.1472 16.6938 66.5953 16.1413C66.0447 15.59 65.7705 14.9134 65.7705 14.1126C65.7705 13.3119 66.0447 12.6353 66.5953 12.084C67.1472 11.5315 67.8308 11.2559 68.651 11.2559C69.4618 11.2559 70.1455 11.5315 70.6973 12.0885C71.2527 12.6444 71.5268 13.3164 71.5268 14.1126C71.5268 14.9134 71.2527 15.59 70.702 16.1413ZM67.1285 15.6834C67.5438 16.0923 68.049 16.2974 68.651 16.2974C69.2483 16.2974 69.7582 16.0923 70.1688 15.6834C70.583 15.2745 70.793 14.7494 70.793 14.1126C70.793 13.4759 70.583 12.9508 70.1688 12.5419C69.7582 12.1329 69.2483 11.9279 68.651 11.9279C68.049 11.9279 67.5438 12.1329 67.1285 12.5419C66.7143 12.9508 66.5043 13.4759 66.5043 14.1126C66.5043 14.7494 66.7143 15.2745 67.1285 15.6834V15.6834Z" fill="white" stroke="white" stroke-width="0.16" stroke-miterlimit="10"/>
<path d="M72.5381 16.8448V11.3818H73.4131L76.1338 15.6305H76.1653L76.1338 14.5803V11.3818H76.8536V16.8448H76.1023L73.2533 12.3865H73.2218L73.2533 13.4413V16.8448H72.5381V16.8448Z" fill="white" stroke="white" stroke-width="0.16" stroke-miterlimit="10"/>
<path d="M65.5924 24.8225C63.4002 24.8225 61.6094 26.4514 61.6094 28.6988C61.6094 30.9279 63.4002 32.5739 65.5924 32.5739C67.7892 32.5739 69.58 30.9279 69.58 28.6988C69.58 26.4514 67.7892 24.8225 65.5924 24.8225ZM65.5924 31.0475C64.3895 31.0475 63.3547 30.0782 63.3547 28.6988C63.3547 27.3011 64.3895 26.3489 65.5924 26.3489C66.7952 26.3489 67.8347 27.3011 67.8347 28.6988C67.8347 30.0782 66.7952 31.0475 65.5924 31.0475V31.0475ZM56.9019 24.8225C54.705 24.8225 52.9189 26.4514 52.9189 28.6988C52.9189 30.9279 54.705 32.5739 56.9019 32.5739C59.0975 32.5739 60.8849 30.9279 60.8849 28.6988C60.8849 26.4514 59.0975 24.8225 56.9019 24.8225ZM56.9019 31.0475C55.6979 31.0475 54.6595 30.0782 54.6595 28.6988C54.6595 27.3011 55.6979 26.3489 56.9019 26.3489C58.1047 26.3489 59.1395 27.3011 59.1395 28.6988C59.1395 30.0782 58.1047 31.0475 56.9019 31.0475ZM46.5605 26.0106V27.6577H50.589C50.4712 28.578 50.1562 29.2546 49.6732 29.7262C49.0852 30.2957 48.1694 30.9279 46.5605 30.9279C44.0814 30.9279 42.14 28.9744 42.14 26.5539C42.14 24.1334 44.0814 22.1799 46.5605 22.1799C47.901 22.1799 48.8764 22.6913 49.5962 23.3543L50.785 22.1936C49.7782 21.255 48.4389 20.5339 46.5605 20.5339C43.1609 20.5339 40.3037 23.2347 40.3037 26.5539C40.3037 29.8731 43.1609 32.5739 46.5605 32.5739C48.398 32.5739 49.7782 31.9861 50.8632 30.8835C51.975 29.798 52.3215 28.2716 52.3215 27.0391C52.3215 26.6564 52.2889 26.3045 52.2305 26.0106H46.5605ZM88.8475 27.2875C88.5197 26.4206 87.5082 24.8225 85.4479 24.8225C83.4062 24.8225 81.7064 26.3933 81.7064 28.6988C81.7064 30.8698 83.3887 32.5739 85.6439 32.5739C87.4674 32.5739 88.5197 31.4883 88.9525 30.8562L87.5992 29.9757C87.1477 30.6204 86.5329 31.0475 85.6439 31.0475C84.7607 31.0475 84.1272 30.6523 83.7212 29.8731L89.0307 27.7283L88.8475 27.2875V27.2875ZM83.4342 28.578C83.3887 27.0836 84.623 26.3181 85.5074 26.3181C86.2004 26.3181 86.7884 26.6564 86.9844 27.1405L83.4342 28.578V28.578ZM79.1187 32.3381H80.864V20.9474H79.1187V32.3381ZM76.2604 25.6859H76.202C75.81 25.2326 75.0622 24.8225 74.1149 24.8225C72.1269 24.8225 70.3092 26.5266 70.3092 28.7113C70.3092 30.8835 72.1269 32.5739 74.1149 32.5739C75.0622 32.5739 75.81 32.1604 76.202 31.6934H76.2604V32.2492C76.2604 33.7312 75.4495 34.5274 74.1417 34.5274C73.0754 34.5274 72.4139 33.7756 72.1409 33.1434L70.623 33.7619C71.0605 34.7893 72.219 36.0537 74.1417 36.0537C76.188 36.0537 77.9147 34.8782 77.9147 32.018V25.0583H76.2604V25.6859V25.6859ZM74.2642 31.0475C73.0614 31.0475 72.0545 30.0645 72.0545 28.7113C72.0545 27.3456 73.0614 26.3489 74.2642 26.3489C75.4495 26.3489 76.384 27.3456 76.384 28.7113C76.384 30.0645 75.4495 31.0475 74.2642 31.0475V31.0475ZM97.0189 20.9474H92.8445V32.3381H94.5852V28.0222H97.0189C98.952 28.0222 100.848 26.6564 100.848 24.4842C100.848 22.3132 98.9474 20.9474 97.0189 20.9474V20.9474ZM97.0644 26.4377H94.5852V22.5319H97.0644C98.364 22.5319 99.106 23.5855 99.106 24.4842C99.106 25.3659 98.364 26.4377 97.0644 26.4377ZM107.825 24.8009C106.567 24.8009 105.259 25.3431 104.721 26.5448L106.266 27.177C106.598 26.5448 107.21 26.3398 107.856 26.3398C108.759 26.3398 109.675 26.8694 109.689 27.8046V27.9242C109.374 27.7465 108.7 27.4834 107.87 27.4834C106.206 27.4834 104.511 28.3776 104.511 30.0463C104.511 31.5726 105.874 32.5556 107.406 32.5556C108.577 32.5556 109.223 32.0396 109.629 31.4394H109.689V32.3199H111.37V27.9504C111.37 25.9308 109.825 24.8009 107.825 24.8009ZM107.615 31.043C107.045 31.043 106.252 30.7673 106.252 30.0782C106.252 29.1965 107.241 28.8582 108.098 28.8582C108.864 28.8582 109.223 29.0234 109.689 29.241C109.552 30.2957 108.623 31.043 107.615 31.043V31.043ZM117.495 25.0503L115.494 29.9882H115.435L113.366 25.0503H111.489L114.597 31.9508L112.824 35.7906H114.643L119.432 25.0503H117.495V25.0503ZM101.805 32.3381H103.55V20.9474H101.805V32.3381Z" fill="white"/>
<path d="M11.7385 11.8697C11.4643 12.1499 11.3057 12.5862 11.3057 13.1512V33.3035C11.3057 33.8685 11.4643 34.3048 11.7385 34.585L11.8062 34.6465L23.3725 23.3583V23.0918L11.8062 11.8037L11.7385 11.8697Z" fill="url(#paint0_linear_1117_643)"/>
<path d="M27.2242 27.123L23.373 23.3584V23.0919L27.2289 19.3273L27.3152 19.3763L31.8815 21.913C33.1847 22.6328 33.1847 23.8175 31.8815 24.5419L27.3152 27.0741L27.2242 27.123V27.123Z" fill="url(#paint1_linear_1117_643)"/>
<path d="M27.3154 27.0741L23.3733 23.2252L11.7393 34.5851C12.1721 35.0294 12.8779 35.0829 13.6806 34.6387L27.3154 27.0741" fill="url(#paint2_linear_1117_643)"/>
<path d="M27.3164 19.3757L13.6816 11.8112C12.8789 11.3715 12.1731 11.425 11.7402 11.8693L23.3742 23.2246L27.3164 19.3757Z" fill="url(#paint3_linear_1117_643)"/>
<defs>
<linearGradient id="paint0_linear_1117_643" x1="22.3455" y1="33.5134" x2="7.05692" y2="17.8543" gradientUnits="userSpaceOnUse">
<stop stop-color="#00A0FF"/>
<stop offset="0.0066" stop-color="#00A1FF"/>
<stop offset="0.2601" stop-color="#00BEFF"/>
<stop offset="0.5122" stop-color="#00D2FF"/>
<stop offset="0.7604" stop-color="#00DFFF"/>
<stop offset="1" stop-color="#00E3FF"/>
</linearGradient>
<linearGradient id="paint1_linear_1117_643" x1="33.5785" y1="23.2239" x2="10.9947" y2="23.2239" gradientUnits="userSpaceOnUse">
<stop stop-color="#FFE000"/>
<stop offset="0.4087" stop-color="#FFBD00"/>
<stop offset="0.7754" stop-color="#FFA500"/>
<stop offset="1" stop-color="#FF9C00"/>
</linearGradient>
<linearGradient id="paint2_linear_1117_643" x1="25.1718" y1="21.1329" x2="4.43917" y2="-0.102081" gradientUnits="userSpaceOnUse">
<stop stop-color="#FF3A44"/>
<stop offset="1" stop-color="#C31162"/>
</linearGradient>
<linearGradient id="paint3_linear_1117_643" x1="8.81172" y1="41.2891" x2="18.0698" y2="31.8068" gradientUnits="userSpaceOnUse">
<stop stop-color="#32A071"/>
<stop offset="0.0685" stop-color="#2DA771"/>
<stop offset="0.4762" stop-color="#15CF74"/>
<stop offset="0.8009" stop-color="#06E775"/>
<stop offset="1" stop-color="#00F076"/>
</linearGradient>
</defs>
</svg>
