<svg width="180" height="180" viewBox="0 0 180 180" fill="none" xmlns="http://www.w3.org/2000/svg">
<path d="M141.432 81.244C141.432 75.0948 136.447 70.11 130.298 70.11C124.149 70.11 119.164 75.0948 119.164 81.244V98.936C119.164 105.085 124.149 110.07 130.298 110.07C136.448 110.07 141.432 105.085 141.432 98.936V81.244Z" fill="white"/>
<path d="M50.1341 16.83H50.134C43.9848 16.83 39 21.8148 39 27.9639V54.536C39 60.6851 43.9848 65.67 50.134 65.67H50.1341C56.2832 65.67 61.268 60.6851 61.268 54.536V27.9639C61.268 21.8148 56.2832 16.83 50.1341 16.83Z" fill="white"/>
<path d="M92.4434 29.0398V29.0399C92.4434 35.1703 97.413 40.1399 103.543 40.1399H130.333C136.463 40.1399 141.433 35.1703 141.433 29.0399V29.0398C141.433 22.9095 136.463 17.9399 130.333 17.9399H103.543C97.413 17.9399 92.4434 22.9095 92.4434 29.0398Z" fill="white"/>
<path d="M39 81.2103V81.2104C39 87.3407 43.9696 92.3104 50.0999 92.3104H76.8897C83.0201 92.3104 87.9897 87.3407 87.9897 81.2104V81.2103C87.9897 75.08 83.0201 70.1104 76.8897 70.1104H50.0999C43.9696 70.1104 39 75.08 39 81.2103Z" fill="#67B6FF"/>
<path d="M65.7207 54.5699V54.57C65.7207 60.7003 70.6903 65.6698 76.8206 65.6698H103.61C109.741 65.6698 114.71 60.7003 114.71 54.57V54.5699C114.71 48.4395 109.741 43.4698 103.61 43.4698H76.8206C70.6903 43.4698 65.7207 48.4395 65.7207 54.5699Z" fill="#67B6FF"/>
<path d="M92.4434 81.21C92.4434 75.0796 97.4294 70.11 103.56 70.11C109.709 70.11 114.711 75.0948 114.711 81.244V92.3103H103.543C97.4132 92.3103 92.4434 87.3403 92.4434 81.21Z" fill="white"/>
<path d="M65.7207 29.04C65.7207 22.9096 70.7073 17.9399 76.8376 17.9399C82.9868 17.9399 87.9887 22.9249 87.9887 29.074V40.14H76.8206C70.6903 40.14 65.7207 35.1704 65.7207 29.04Z" fill="#67B6FF"/>
<path d="M119.164 54.5699C119.164 48.4396 124.151 43.47 130.282 43.47C136.431 43.47 141.433 48.4548 141.433 54.604V65.67H130.265C124.134 65.67 119.164 60.7003 119.164 54.5699Z" fill="#67B6FF"/>
<path d="M48.1121 152.821C48.1121 154.411 46.823 155.7 45.2328 155.7C43.6426 155.7 42.3535 154.411 42.3535 152.821V127.002C42.3535 125.412 43.6426 124.123 45.2328 124.123C46.823 124.123 48.1121 125.412 48.1121 127.002V134.1C48.8012 133.58 49.5113 133.214 50.2426 133.003C50.9738 132.778 51.7192 132.665 52.4785 132.665C53.8707 132.665 55.1785 132.933 56.402 133.467C57.6253 133.987 58.6871 134.712 59.5871 135.64C60.5012 136.554 61.2183 137.63 61.7387 138.867C62.273 140.09 62.5402 141.398 62.5402 142.79V152.8C62.5402 154.401 61.2417 155.7 59.6399 155.7C58.038 155.7 56.7395 154.401 56.7395 152.8V142.79H56.7817C56.7817 142.2 56.6692 141.645 56.4442 141.124C56.2192 140.59 55.9098 140.125 55.516 139.732C55.1223 139.338 54.6652 139.029 54.145 138.804C53.6246 138.579 53.0692 138.467 52.4785 138.467C51.8738 138.467 51.3043 138.579 50.77 138.804C50.2355 139.029 49.7715 139.338 49.3777 139.732C48.984 140.125 48.6746 140.59 48.4496 141.124C48.2246 141.645 48.1121 142.2 48.1121 142.79V152.821ZM98.1756 152.799C98.1756 154.401 96.8769 155.7 95.2749 155.7C93.6729 155.7 92.3742 154.401 92.3742 152.799V127.023C92.3742 125.421 93.6729 124.123 95.2749 124.123C96.8769 124.123 98.1756 125.421 98.1756 127.023V152.799ZM109.896 152.8C109.896 154.401 108.598 155.7 106.996 155.7C105.394 155.7 104.096 154.401 104.096 152.8V127.023C104.096 125.421 105.394 124.123 106.996 124.123C108.598 124.123 109.896 125.421 109.896 127.023V152.8ZM137.65 144.204C137.65 145.892 137.347 147.467 136.742 148.929C136.138 150.377 135.315 151.636 134.275 152.705C133.233 153.76 132.01 154.596 130.603 155.215C129.212 155.82 127.714 156.122 126.111 156.122C124.522 156.122 123.025 155.82 121.618 155.215C120.226 154.596 119.002 153.76 117.948 152.705C116.907 151.636 116.085 150.377 115.48 148.929C114.875 147.467 114.573 145.892 114.573 144.204C114.573 142.488 114.875 140.899 115.48 139.437C116.085 137.974 116.907 136.715 117.948 135.661C119.002 134.592 120.226 133.755 121.618 133.15C123.025 132.546 124.522 132.244 126.111 132.244C127.714 132.244 129.212 132.532 130.603 133.108C132.01 133.671 133.233 134.48 134.275 135.535C135.315 136.575 136.138 137.833 136.742 139.31C137.347 140.773 137.65 142.404 137.65 144.204ZM131.848 144.204C131.848 143.275 131.693 142.439 131.385 141.694C131.089 140.935 130.681 140.287 130.161 139.753C129.64 139.205 129.028 138.79 128.326 138.508C127.637 138.213 126.898 138.065 126.111 138.065C125.323 138.065 124.578 138.213 123.875 138.508C123.186 138.79 122.581 139.205 122.061 139.753C121.555 140.287 121.153 140.935 120.858 141.694C120.563 142.439 120.415 143.275 120.415 144.204C120.415 145.075 120.563 145.885 120.858 146.63C121.153 147.375 121.555 148.022 122.061 148.57C122.581 149.119 123.186 149.555 123.875 149.878C124.578 150.187 125.323 150.342 126.111 150.342C126.898 150.342 127.637 150.195 128.326 149.899C129.028 149.604 129.64 149.189 130.161 148.655C130.681 148.12 131.089 147.473 131.385 146.714C131.693 145.955 131.848 145.118 131.848 144.204Z" fill="white"/>
<path fill-rule="evenodd" clip-rule="evenodd" d="M65.7978 138.09C65.5303 136.735 66.4114 135.42 67.766 135.152L82.4816 132.246C83.8363 131.978 85.1512 132.859 85.4188 134.214C85.6864 135.568 84.8052 136.883 83.4507 137.151L68.735 140.058C67.3805 140.325 66.0654 139.444 65.7978 138.09ZM67.3481 145.938C67.0805 144.583 67.9617 143.268 69.3163 143.001L84.0319 140.094C85.3864 139.826 86.7014 140.708 86.969 142.062C87.2365 143.417 86.3554 144.732 85.0008 144.999L70.2852 147.906C68.9307 148.174 67.6157 147.292 67.3481 145.938ZM70.8665 150.849C69.512 151.117 68.6308 152.432 68.8984 153.786C69.166 155.141 70.4809 156.022 71.8355 155.754L86.5511 152.848C87.9057 152.58 88.7868 151.265 88.5193 149.911C88.2517 148.556 86.9367 147.675 85.5822 147.942L70.8665 150.849Z" fill="white"/>
</svg>
