<svg width="130" height="46" viewBox="0 0 130 46" fill="none" xmlns="http://www.w3.org/2000/svg">
<path d="M127.299 37.2028C127.299 39.1426 125.695 40.7139 123.711 40.7139H6.29192C4.30887 40.7139 2.69922 39.1426 2.69922 37.2028V9.20316C2.69922 7.26428 4.30887 5.6875 6.29192 5.6875H123.71C125.695 5.6875 127.298 7.26428 127.298 9.20316L127.299 37.2028Z" fill="black"/>
<path d="M123.333 5.72953C125.494 5.72953 127.252 7.44374 127.252 9.55039V36.8504C127.252 38.957 125.494 40.6713 123.333 40.6713H6.66667C4.506 40.6713 2.74783 38.957 2.74783 36.8504V9.55039C2.74783 7.44374 4.506 5.72953 6.66667 5.72953H123.333ZM123.333 5.00039H6.66667C4.10117 5.00039 2 7.04903 2 9.55039V36.8504C2 39.3518 4.10117 41.4004 6.66667 41.4004H123.333C125.899 41.4004 128 39.3518 128 36.8504V9.55039C128 7.04903 125.899 5.00039 123.333 5.00039Z" fill="#A6A6A6"/>
<path fill-rule="evenodd" clip-rule="evenodd" d="M22.52 35.0358C17.0894 35.0358 14.3741 35.0358 12.6871 33.3462C11 31.6566 11 28.9373 11 23.4986L11 22.5371C11 17.0984 11 14.3791 12.6871 12.6895C14.3741 11 17.0894 11 22.52 11L23.48 11C28.9106 11 31.6259 11 33.3129 12.6895C35 14.3791 35 17.0984 35 22.5371V23.4986C35 28.9373 35 31.6566 33.3129 33.3462C31.6259 35.0358 28.9106 35.0358 23.48 35.0358H22.52Z" fill="#0077FF"/>
<path d="M24.8783 25.8117C24.2317 25.6499 23.7783 25.0706 23.7783 24.4062V16.5788C23.7783 15.8241 24.4904 15.2707 25.2248 15.4544L29.8759 16.618C30.5225 16.7798 30.9759 17.3591 30.9759 18.0235V25.8509C30.9759 26.6055 30.2639 27.159 29.5295 26.9753L24.8783 25.8117Z" fill="white"/>
<path d="M16.1244 29.4162C15.4778 29.2544 15.0244 28.6751 15.0244 28.0107V20.1833C15.0244 19.4286 15.7364 18.8752 16.4709 19.0589L21.122 20.2225C21.7686 20.3843 22.222 20.9635 22.222 21.6279V29.4554C22.222 30.21 21.51 30.7635 20.7755 30.5798L16.1244 29.4162Z" fill="white"/>
<path d="M20.5014 27.6144C19.8547 27.4526 19.4014 26.8733 19.4014 26.2089V18.3815C19.4014 17.6269 20.1134 17.0734 20.8479 17.2571L25.4989 18.4207C26.1456 18.5825 26.599 19.1618 26.599 19.8262V27.6536C26.599 28.4083 25.887 28.9618 25.1525 28.778L20.5014 27.6144Z" fill="white"/>
<path d="M23.5449 28.3782C23.3412 28.3263 23.1963 28.1459 23.1892 27.9355L22.9868 21.9577C22.9283 21.1666 22.3419 20.5373 21.7291 20.352C21.6947 20.3416 21.6579 20.3557 21.6376 20.3853C21.6169 20.4154 21.6249 20.4571 21.6537 20.4795C21.8051 20.5968 22.2216 20.9797 22.2216 21.64L22.2203 28.042L23.5449 28.3782Z" fill="#2B71F6"/>
<path d="M27.9239 26.5741C27.7204 26.5231 27.5752 26.3433 27.5681 26.1333L27.3657 20.156C27.3072 19.3648 26.7208 18.7356 26.108 18.5503C26.0736 18.5399 26.0369 18.5539 26.0165 18.5835C25.9958 18.6137 26.0038 18.6554 26.0327 18.6778C26.184 18.7951 26.6005 19.1779 26.6005 19.8383L26.5993 26.2425L27.9239 26.5741Z" fill="#2B71F6"/>
<path d="M48.601 29.3991C50.3513 28.9522 51.5014 27.6115 51.5014 25.857C51.5014 23.6888 49.7677 22.166 47.334 22.166H43V33.835H45.0003V29.5481H46.4173L49.5176 33.835H51.8681L48.601 29.3991ZM47.334 23.9867C48.5842 23.9867 49.4512 24.7481 49.4512 25.857C49.4512 26.966 48.5842 27.7274 47.334 27.7274H45.0003V23.9867H47.334Z" fill="white"/>
<path d="M56.3697 33.999C57.4197 33.999 58.3866 33.4528 58.9368 32.5424L59.32 33.8335H60.7538V25.2266H58.8367V30.2086C58.8367 31.4335 58.0199 32.2942 56.9031 32.2942C55.8029 32.2942 55.0359 31.4335 55.0359 30.2086V25.2266H53.1191V30.4238C53.1191 32.4928 54.5193 33.999 56.3697 33.999Z" fill="white"/>
<path d="M66.871 34C69.088 34 70.9218 32.7421 70.9218 30.6565C70.9218 28.3227 69.0048 27.6441 67.3545 27.0814C66.071 26.6511 64.9542 26.2538 64.9542 25.211C64.9542 24.3007 65.8041 23.8207 66.8043 23.8207C67.8546 23.8207 68.6048 24.3669 69.0216 25.2938L70.9218 24.9793C70.3217 23.1586 68.8046 22 66.7378 22C64.6041 22 62.9037 23.2248 62.9037 25.3104C62.9037 27.6607 64.8208 28.3062 66.471 28.8524C67.738 29.2662 68.8713 29.6634 68.8713 30.7228C68.8713 31.6497 68.0214 32.1793 66.8878 32.1793C65.5874 32.1793 64.8875 31.5669 64.2708 30.4579L62.3369 30.789C62.9037 32.7586 64.7042 34 66.871 34Z" fill="white"/>
<path d="M76.1375 32.1796C75.4875 32.1796 75.1707 31.8651 75.1707 31.2196V26.8831H77.7544V25.2279H75.1707V22.7451H73.7372L73.2536 25.2279H71.8369V26.8831H73.2536V31.2196C73.2536 32.9079 74.2373 33.8348 76.1375 33.8348H77.7544L77.9212 32.1796H76.1375Z" fill="white"/>
<path d="M83.3988 33.9994C86.1159 33.9994 88.0327 32.1457 88.0327 29.5305C88.0327 26.9153 86.1159 25.0615 83.3988 25.0615C80.6817 25.0615 78.7646 26.9153 78.7646 29.5305C78.7646 32.1457 80.6817 33.9994 83.3988 33.9994ZM83.3988 32.2615C81.8319 32.2615 80.765 31.1526 80.765 29.5305C80.765 27.9084 81.8319 26.7995 83.3988 26.7995C84.9658 26.7995 86.0324 27.9084 86.0324 29.5305C86.0324 31.1526 84.9658 32.2615 83.3988 32.2615Z" fill="white"/>
<path d="M91.616 33.8335V28.7521C91.616 27.6597 92.1495 27.0472 93.3164 27.0472H94.4166L94.2499 25.2266H93.8832C92.8662 25.2266 92.0828 25.5079 91.4994 26.468L91.1328 25.2266H89.6992V33.8335H91.616Z" fill="white"/>
<path d="M103.849 29.4312C103.849 26.9484 101.982 25.0615 99.3484 25.0615C96.7148 25.0615 94.8477 26.9319 94.8477 29.5305C94.8477 32.1291 96.7148 33.9994 99.3484 33.9994C101.149 33.9994 102.849 33.1553 103.499 31.5167L101.699 31.2188C101.282 31.8312 100.482 32.2615 99.4653 32.2615C97.9984 32.2615 97.0316 31.3677 96.848 30.0436H103.816C103.833 29.8615 103.849 29.6629 103.849 29.4312ZM99.3484 26.7167C100.549 26.7167 101.449 27.4781 101.766 28.5539H96.9649C97.2816 27.445 98.1817 26.7167 99.3484 26.7167Z" fill="white"/>
<path d="M48.0157 15.142C48.0157 16.2131 47.6863 17.0193 47.0283 17.5608C46.4188 18.0604 45.5527 18.3106 44.4308 18.3106C43.8745 18.3106 43.3985 18.287 43 18.2396V12.3874C43.5199 12.3055 44.0799 12.2637 44.6847 12.2637C45.7533 12.2637 46.5588 12.4903 47.102 12.9434C47.7105 13.4558 48.0157 14.1883 48.0157 15.142ZM46.9844 15.1684C46.9844 14.4741 46.7959 13.9417 46.4188 13.5704C46.0417 13.2001 45.4911 13.0144 44.7659 13.0144C44.4579 13.0144 44.1956 13.0344 43.9781 13.0763V17.5253C44.0985 17.5435 44.3188 17.5517 44.6389 17.5517C45.3875 17.5517 45.9652 17.3488 46.3721 16.9429C46.7791 16.537 46.9844 15.9455 46.9844 15.1684Z" fill="white"/>
<path d="M53.484 16.0786C53.484 16.7383 53.2908 17.2789 52.9044 17.7029C52.4993 18.1388 51.9627 18.3563 51.2925 18.3563C50.6467 18.3563 50.1324 18.1479 49.7488 17.7293C49.3661 17.3116 49.1748 16.7847 49.1748 16.1496C49.1748 15.4853 49.3717 14.9402 49.7675 14.517C50.1632 14.0939 50.6952 13.8818 51.3653 13.8818C52.0112 13.8818 52.5301 14.0902 52.9231 14.5079C53.2964 14.9138 53.484 15.4379 53.484 16.0786ZM52.4695 16.1095C52.4695 15.7137 52.3817 15.3742 52.2072 15.0912C52.0019 14.7491 51.7097 14.578 51.3299 14.578C50.9369 14.578 50.6383 14.7491 50.4329 15.0912C50.2575 15.3742 50.1707 15.7191 50.1707 16.1268C50.1707 16.5227 50.2584 16.8621 50.4329 17.1451C50.6448 17.4873 50.9397 17.6583 51.3205 17.6583C51.6939 17.6583 51.9869 17.4845 52.1979 17.136C52.3789 16.8475 52.4695 16.5054 52.4695 16.1095Z" fill="white"/>
<path d="M60.817 13.9678L59.4404 18.2575H58.5444L57.9741 16.3947C57.8294 15.9297 57.7118 15.4675 57.6204 15.0088H57.6026C57.5177 15.4802 57.4001 15.9416 57.2489 16.3947L56.6432 18.2575H55.7369L54.4424 13.9678H55.4476L55.945 16.0071C56.0654 16.4894 56.1644 16.9489 56.2437 17.3839H56.2614C56.3342 17.0254 56.4546 16.5686 56.6245 16.0162L57.2489 13.9687H58.046L58.6442 15.9725C58.7889 16.4612 58.9065 16.9316 58.997 17.3848H59.0241C59.0904 16.9435 59.1902 16.473 59.3228 15.9725L59.8566 13.9687H60.817V13.9678Z" fill="white"/>
<path d="M65.8868 18.2587H64.9087V15.8017C64.9087 15.0446 64.6137 14.6661 64.022 14.6661C63.7317 14.6661 63.4975 14.7698 63.3155 14.9782C63.1353 15.1866 63.0439 15.4323 63.0439 15.7135V18.2578H62.0657V15.1948C62.0657 14.818 62.0536 14.4094 62.0303 13.9672H62.8899L62.9356 14.6378H62.9627C63.0765 14.4295 63.2464 14.2575 63.4695 14.1201C63.7345 13.9599 64.0313 13.8789 64.3561 13.8789C64.7668 13.8789 65.1084 14.0081 65.38 14.2675C65.7179 14.5851 65.8868 15.0592 65.8868 15.6889V18.2587V18.2587Z" fill="white"/>
<path d="M68.5846 18.2581H67.6074V12H68.5846V18.2581Z" fill="white"/>
<path d="M74.3434 16.0786C74.3434 16.7383 74.1502 17.2789 73.7638 17.7029C73.3587 18.1388 72.8211 18.3563 72.1519 18.3563C71.5051 18.3563 70.9908 18.1479 70.6082 17.7293C70.2255 17.3116 70.0342 16.7847 70.0342 16.1496C70.0342 15.4853 70.2311 14.9402 70.6268 14.517C71.0226 14.0939 71.5546 13.8818 72.2238 13.8818C72.8706 13.8818 73.3886 14.0902 73.7824 14.5079C74.1558 14.9138 74.3434 15.4379 74.3434 16.0786ZM73.3279 16.1095C73.3279 15.7137 73.2402 15.3742 73.0656 15.0912C72.8612 14.7491 72.5682 14.578 72.1892 14.578C71.7954 14.578 71.4967 14.7491 71.2923 15.0912C71.1168 15.3742 71.03 15.7191 71.03 16.1268C71.03 16.5227 71.1178 16.8621 71.2923 17.1451C71.5042 17.4873 71.7991 17.6583 72.1799 17.6583C72.5532 17.6583 72.8454 17.4845 73.0563 17.136C73.2383 16.8475 73.3279 16.5054 73.3279 16.1095Z" fill="white"/>
<path d="M79.0768 18.2589H78.1986L78.1258 17.7648H78.0987C77.7982 18.1588 77.3698 18.3563 76.8135 18.3563C76.3982 18.3563 76.0622 18.2262 75.8092 17.9677C75.5796 17.733 75.4648 17.4408 75.4648 17.0941C75.4648 16.57 75.6888 16.1705 76.1396 15.8938C76.5895 15.6172 77.2223 15.4816 78.0371 15.488V15.4079C78.0371 14.8428 77.7328 14.5607 77.1234 14.5607C76.6894 14.5607 76.3067 14.6672 75.9763 14.8783L75.7775 14.2522C76.1863 14.0056 76.6912 13.8818 77.2867 13.8818C78.4366 13.8818 79.0134 14.4733 79.0134 15.6563V17.2361C79.0134 17.6647 79.0348 18.006 79.0768 18.2589ZM78.0614 16.7847V16.1232C76.9824 16.105 76.443 16.3934 76.443 16.9877C76.443 17.2115 76.5046 17.379 76.6306 17.4909C76.7566 17.6028 76.9171 17.6583 77.1084 17.6583C77.3231 17.6583 77.5238 17.5919 77.7067 17.46C77.8906 17.3271 78.0035 17.1587 78.0455 16.9522C78.0558 16.9058 78.0614 16.8493 78.0614 16.7847Z" fill="white"/>
<path d="M84.6355 18.2581H83.7675L83.7218 17.5692H83.6947C83.4175 18.0934 82.9453 18.3554 82.2817 18.3554C81.7515 18.3554 81.3101 18.1525 80.9601 17.7467C80.6101 17.3408 80.4355 16.8139 80.4355 16.1669C80.4355 15.4726 80.625 14.9102 81.0058 14.4807C81.3745 14.0803 81.8262 13.8801 82.3638 13.8801C82.9546 13.8801 83.3681 14.0739 83.6033 14.4625H83.6219V12H84.601V17.1024C84.601 17.5201 84.6122 17.905 84.6355 18.2581ZM83.6219 16.449V15.7337C83.6219 15.61 83.6126 15.5099 83.5949 15.4334C83.5398 15.2041 83.4213 15.0112 83.2411 14.8556C83.0591 14.7 82.8398 14.6217 82.5869 14.6217C82.2219 14.6217 81.9363 14.7628 81.7263 15.0458C81.5182 15.3288 81.4127 15.69 81.4127 16.1314C81.4127 16.5555 81.5126 16.8994 81.7133 17.1642C81.9251 17.4463 82.2107 17.5874 82.5682 17.5874C82.8893 17.5874 83.1459 17.47 83.341 17.2343C83.5295 17.0168 83.6219 16.7547 83.6219 16.449Z" fill="white"/>
<path d="M93.0006 16.0786C93.0006 16.7383 92.8074 17.2789 92.421 17.7029C92.0159 18.1388 91.4802 18.3563 90.8091 18.3563C90.1642 18.3563 89.6499 18.1479 89.2654 17.7293C88.8827 17.3116 88.6914 16.7847 88.6914 16.1496C88.6914 15.4853 88.8883 14.9402 89.2841 14.517C89.6798 14.0939 90.2118 13.8818 90.8829 13.8818C91.5278 13.8818 92.0477 14.0902 92.4397 14.5079C92.813 14.9138 93.0006 15.4379 93.0006 16.0786ZM91.987 16.1095C91.987 15.7137 91.8993 15.3742 91.7247 15.0912C91.5185 14.7491 91.2273 14.578 90.8465 14.578C90.4545 14.578 90.1558 14.7491 89.9495 15.0912C89.7741 15.3742 89.6873 15.7191 89.6873 16.1268C89.6873 16.5227 89.775 16.8621 89.9495 17.1451C90.1614 17.4873 90.4563 17.6583 90.8371 17.6583C91.2105 17.6583 91.5045 17.4845 91.7154 17.136C91.8955 16.8475 91.987 16.5054 91.987 16.1095Z" fill="white"/>
<path d="M98.2599 18.2587H97.2827V15.8017C97.2827 15.0446 96.9878 14.6661 96.3951 14.6661C96.1048 14.6661 95.8706 14.7698 95.6895 14.9782C95.5084 15.1866 95.4179 15.4323 95.4179 15.7135V18.2578H94.4388V15.1948C94.4388 14.818 94.4276 14.4094 94.4043 13.9672H95.263L95.3087 14.6378H95.3358C95.4506 14.4295 95.6204 14.2575 95.8426 14.1201C96.1086 13.9599 96.4044 13.8789 96.7302 13.8789C97.1399 13.8789 97.4815 14.0081 97.7531 14.2675C98.0919 14.5851 98.2599 15.0592 98.2599 15.6889V18.2587V18.2587Z" fill="white"/>
<path d="M104.843 14.6831H103.766V16.767C103.766 17.2966 103.957 17.5614 104.336 17.5614C104.511 17.5614 104.657 17.5469 104.772 17.5168L104.797 18.2403C104.604 18.3113 104.35 18.3467 104.037 18.3467C103.651 18.3467 103.35 18.2321 103.133 18.0028C102.914 17.7734 102.806 17.3876 102.806 16.8462V14.6831H102.163V13.9687H102.806V13.1825L103.765 12.9004V13.9678H104.842V14.6831H104.843Z" fill="white"/>
<path d="M110.02 18.2581H109.041V15.8193C109.041 15.0503 108.746 14.6654 108.155 14.6654C107.702 14.6654 107.392 14.8883 107.222 15.3342C107.193 15.428 107.176 15.5426 107.176 15.6773V18.2572H106.199V12H107.176V14.5853H107.195C107.503 14.1148 107.945 13.8801 108.517 13.8801C108.922 13.8801 109.257 14.0093 109.523 14.2686C109.854 14.5917 110.02 15.0722 110.02 15.7073V18.2581V18.2581Z" fill="white"/>
<path d="M115.363 15.9105C115.363 16.0816 115.35 16.2254 115.326 16.3428H112.393C112.406 16.7668 112.546 17.0899 112.818 17.3138C113.066 17.514 113.386 17.6141 113.778 17.6141C114.212 17.6141 114.608 17.5467 114.964 17.4111L115.117 18.0736C114.7 18.2501 114.209 18.3384 113.641 18.3384C112.959 18.3384 112.423 18.1428 112.035 17.7515C111.644 17.3602 111.451 16.8351 111.451 16.1763C111.451 15.5292 111.631 14.9905 111.994 14.561C112.373 14.1024 112.886 13.873 113.533 13.873C114.165 13.873 114.646 14.1024 114.971 14.561C115.233 14.925 115.363 15.3755 115.363 15.9105ZM114.429 15.6639C114.437 15.3809 114.373 15.137 114.24 14.9314C114.07 14.6666 113.812 14.5337 113.462 14.5337C113.142 14.5337 112.882 14.6629 112.683 14.9223C112.521 15.1288 112.425 15.3755 112.393 15.6639H114.429Z" fill="white"/>
</svg>
