<svg width="130" height="46" viewBox="0 0 130 46" fill="none" xmlns="http://www.w3.org/2000/svg">
<path d="M129.007 37.3913C129.007 39.3851 127.359 41 125.321 41H4.68336C2.64596 41 0.992188 39.3851 0.992188 37.3913V8.61338C0.992188 6.6206 2.64596 5 4.68336 5H125.32C127.359 5 129.007 6.6206 129.007 8.61338L129.007 37.3913Z" fill="black" stroke="black"/>
<path d="M125.185 4.76119C127.414 4.76119 129.228 6.55075 129.228 8.75V37.25C129.228 39.4492 127.414 41.2388 125.185 41.2388H4.81481C2.58556 41.2388 0.771574 39.4492 0.771574 37.25V8.75C0.771574 6.55075 2.58556 4.76119 4.81481 4.76119H125.185ZM125.185 4H4.81481C2.16787 4 0 6.13869 0 8.75V37.25C0 39.8613 2.16787 42 4.81481 42H125.185C127.832 42 130 39.8613 130 37.25V8.75C130 6.13869 127.832 4 125.185 4Z" fill="#A6A6A6"/>
<path fill-rule="evenodd" clip-rule="evenodd" d="M22.3481 35.0358C16.959 35.0358 14.2644 35.0358 12.5902 33.3462C10.916 31.6566 10.916 28.9373 10.916 23.4986L10.916 22.5371C10.916 17.0984 10.916 14.3791 12.5902 12.6895C14.2644 11 16.959 11 22.3481 11L23.3007 11C28.6899 11 31.3844 11 33.0586 12.6895C34.7328 14.3791 34.7328 17.0984 34.7328 22.5371V23.4986C34.7328 28.9373 34.7328 31.6566 33.0586 33.3462C31.3844 35.0358 28.6899 35.0358 23.3007 35.0358H22.3481Z" fill="#0077FF"/>
<path d="M24.6883 25.8117C24.0466 25.6499 23.5967 25.0706 23.5967 24.4062V16.5788C23.5967 15.8241 24.3033 15.2707 25.0321 15.4544L29.6477 16.618C30.2894 16.7798 30.7394 17.3591 30.7394 18.0235V25.8509C30.7394 26.6055 30.0328 27.159 29.3039 26.9753L24.6883 25.8117Z" fill="white"/>
<path d="M16.0018 29.4162C15.3601 29.2544 14.9102 28.6751 14.9102 28.0107V20.1833C14.9102 19.4286 15.6167 18.8752 16.3456 19.0589L20.9612 20.2225C21.6029 20.3843 22.0528 20.9635 22.0528 21.6279V29.4554C22.0528 30.21 21.3462 30.7635 20.6174 30.5798L16.0018 29.4162Z" fill="white"/>
<path d="M20.3446 27.6144C19.7029 27.4526 19.2529 26.8733 19.2529 26.209V18.3815C19.2529 17.6269 19.9595 17.0734 20.6884 17.2571L25.304 18.4207C25.9457 18.5825 26.3956 19.1618 26.3956 19.8262V27.6536C26.3956 28.4083 25.689 28.9618 24.9601 28.778L20.3446 27.6144Z" fill="white"/>
<path d="M23.3652 28.3782C23.1631 28.3263 23.0193 28.1459 23.0122 27.9355L22.8114 21.9577C22.7533 21.1666 22.1714 20.5373 21.5633 20.352C21.5291 20.3416 21.4927 20.3557 21.4724 20.3853C21.4519 20.4154 21.4598 20.4571 21.4885 20.4795C21.6387 20.5968 22.052 20.9797 22.052 21.64L22.0508 28.042L23.3652 28.3782Z" fill="#2B71F6"/>
<path d="M27.711 26.5741C27.509 26.5231 27.365 26.3433 27.3579 26.1333L27.1571 20.156C27.099 19.3648 26.5171 18.7356 25.909 18.5503C25.8748 18.5399 25.8384 18.5539 25.8182 18.5835C25.7976 18.6137 25.8055 18.6554 25.8342 18.6778C25.9844 18.7951 26.3977 19.1779 26.3977 19.8383L26.3965 26.2425L27.711 26.5741Z" fill="#2B71F6"/>
<path d="M48.2301 29.3991C49.967 28.9522 51.1084 27.6115 51.1084 25.857C51.1084 23.6888 49.3879 22.166 46.9728 22.166H42.6719V33.835H44.6569V29.5481H46.0631L49.1397 33.835H51.4722L48.2301 29.3991ZM46.9728 23.9867C48.2134 23.9867 49.0738 24.7481 49.0738 25.857C49.0738 26.966 48.2134 27.7274 46.9728 27.7274H44.6569V23.9867H46.9728Z" fill="white"/>
<path d="M55.9396 33.999C56.9816 33.999 57.9411 33.4528 58.4871 32.5424L58.8674 33.8335H60.2902V25.2266H58.3878V30.2086C58.3878 31.4335 57.5772 32.2942 56.469 32.2942C55.3771 32.2942 54.616 31.4335 54.616 30.2086V25.2266H52.7139V30.4238C52.7139 32.4928 54.1034 33.999 55.9396 33.999Z" fill="white"/>
<path d="M66.3608 34C68.5609 34 70.3807 32.7421 70.3807 30.6565C70.3807 28.3228 68.4783 27.6441 66.8407 27.0814C65.5669 26.6511 64.4586 26.2538 64.4586 25.211C64.4586 24.3007 65.3021 23.8207 66.2946 23.8207C67.3369 23.8207 68.0813 24.3669 68.495 25.2938L70.3807 24.9793C69.7851 23.1586 68.2797 22 66.2287 22C64.1112 22 62.4238 23.2248 62.4238 25.3104C62.4238 27.6607 64.3262 28.3062 65.9639 28.8524C67.2212 29.2662 68.3459 29.6634 68.3459 30.7228C68.3459 31.6497 67.5024 32.1793 66.3775 32.1793C65.087 32.1793 64.3924 31.5669 63.7804 30.4579L61.8613 30.789C62.4238 32.7586 64.2105 34 66.3608 34Z" fill="white"/>
<path d="M75.5559 32.1796C74.9108 32.1796 74.5964 31.8651 74.5964 31.2196V26.8831H77.1604V25.2279H74.5964V22.7451H73.1738L72.694 25.2279H71.2881V26.8831H72.694V31.2196C72.694 32.9079 73.6701 33.8348 75.5559 33.8348H77.1604L77.3259 32.1796H75.5559Z" fill="white"/>
<path d="M82.7619 33.9994C85.4582 33.9994 87.3604 32.1457 87.3604 29.5305C87.3604 26.9153 85.4582 25.0615 82.7619 25.0615C80.0655 25.0615 78.1631 26.9153 78.1631 29.5305C78.1631 32.1457 80.0655 33.9994 82.7619 33.9994ZM82.7619 32.2615C81.2069 32.2615 80.1481 31.1526 80.1481 29.5305C80.1481 27.9084 81.2069 26.7995 82.7619 26.7995C84.3169 26.7995 85.3753 27.9084 85.3753 29.5305C85.3753 31.1526 84.3169 32.2615 82.7619 32.2615Z" fill="white"/>
<path d="M90.9168 33.8335V28.7521C90.9168 27.6597 91.4462 27.0472 92.6042 27.0472H93.6961L93.5306 25.2266H93.1667C92.1575 25.2266 91.38 25.5079 90.8011 26.468L90.4372 25.2266H89.0146V33.8335H90.9168Z" fill="white"/>
<path d="M103.057 29.4312C103.057 26.9484 101.204 25.0615 98.5904 25.0615C95.9769 25.0615 94.124 26.9319 94.124 29.5305C94.124 32.1291 95.9769 33.9994 98.5904 33.9994C100.377 33.9994 102.064 33.1553 102.71 31.5167L100.923 31.2188C100.51 31.8312 99.7153 32.2615 98.7064 32.2615C97.2507 32.2615 96.2913 31.3677 96.1091 30.0436H103.024C103.04 29.8615 103.057 29.6629 103.057 29.4312ZM98.5904 26.7167C99.7816 26.7167 100.675 27.4781 100.989 28.5539H96.2251C96.5394 27.445 97.4326 26.7167 98.5904 26.7167Z" fill="white"/>
<path d="M44.0548 14.2534H44.8488C44.9854 14.2705 45.1242 14.259 45.2562 14.2195C45.3882 14.1801 45.5107 14.1136 45.6159 14.0242C45.721 13.9348 45.8067 13.8246 45.8673 13.7003C45.928 13.576 45.9624 13.4405 45.9683 13.3022C45.9683 12.7519 45.5563 12.3965 44.8575 12.3965C44.7175 12.3768 44.5749 12.3855 44.4383 12.4221C44.3017 12.4587 44.1738 12.5225 44.0621 12.6096C43.9504 12.6967 43.8572 12.8054 43.788 12.9293C43.7188 13.0533 43.675 13.1898 43.6592 13.331H42.7875C42.8025 13.0747 42.8698 12.8243 42.9853 12.5953C43.1008 12.3663 43.262 12.1636 43.4589 11.9999C43.6557 11.8362 43.8839 11.7149 44.1294 11.6437C44.3749 11.5725 44.6323 11.5528 44.8857 11.5859C46.0548 11.5859 46.878 12.2436 46.878 13.1904C46.8807 13.5076 46.7751 13.8161 46.5788 14.0645C46.3825 14.3128 46.1073 14.486 45.7992 14.5551V14.6255C46.1644 14.6417 46.5084 14.8026 46.7559 15.073C47.0034 15.3434 47.1343 15.7012 47.1199 16.0683C47.0929 16.3322 47.0137 16.588 46.887 16.8208C46.7604 17.0535 46.5887 17.2585 46.3822 17.4237C46.1756 17.5889 45.9383 17.711 45.6842 17.7829C45.4301 17.8548 45.1642 17.875 44.9022 17.8422C44.6397 17.8782 44.3726 17.8607 44.117 17.7907C43.8613 17.7208 43.6223 17.5998 43.4142 17.435C43.2061 17.2703 43.0331 17.0651 42.9055 16.8317C42.778 16.5983 42.6985 16.3415 42.6719 16.0766H43.5572C43.6107 16.6474 44.1325 17.0156 44.9022 17.0156C45.6719 17.0156 46.1743 16.6021 46.1743 16.019C46.1743 15.4277 45.7011 15.0635 44.874 15.0635H44.0548V14.2534Z" fill="white"/>
<path d="M48.127 16.4238C48.127 15.6133 48.7285 15.146 49.7936 15.0796L51.0075 15.0093V14.6206C51.0075 14.145 50.6955 13.8765 50.09 13.8765C49.5964 13.8765 49.2552 14.0586 49.1561 14.3769H48.2999C48.3903 13.6035 49.1153 13.1074 50.1318 13.1074C51.2553 13.1074 51.8889 13.6694 51.8889 14.6206V17.6972H51.0366V17.0644H50.9666C50.8246 17.2914 50.6252 17.4765 50.3887 17.6007C50.1522 17.7249 49.8872 17.7838 49.6207 17.7714C49.4325 17.7911 49.2424 17.7709 49.0625 17.7122C48.8826 17.6535 48.717 17.5576 48.5763 17.4306C48.4355 17.3037 48.3228 17.1485 48.2454 16.9751C48.1681 16.8016 48.1277 16.6139 48.127 16.4238ZM51.0075 16.039V15.6626L49.9131 15.7329C49.296 15.7744 49.0161 15.9853 49.0161 16.3823C49.0161 16.7876 49.366 17.0234 49.8471 17.0234C49.988 17.0378 50.1304 17.0235 50.2658 16.9814C50.4011 16.9393 50.5267 16.8703 50.6349 16.7784C50.7432 16.6866 50.832 16.5738 50.896 16.4468C50.96 16.3197 50.9979 16.1811 51.0075 16.039Z" fill="white"/>
<path d="M54.2349 13.9434V17.6982H53.3506V13.1953H56.3011V13.9433L54.2349 13.9434Z" fill="white"/>
<path d="M61.6603 15.4448C61.6603 16.8754 60.9402 17.7724 59.8089 17.7724C59.5313 17.7915 59.2539 17.7304 59.0096 17.5964C58.7653 17.4624 58.5642 17.2611 58.4299 17.0161H58.3599V19.1953H57.4756V13.1953H58.3269V13.9394H58.393C58.5297 13.6859 58.7334 13.4752 58.9817 13.3307C59.2301 13.1862 59.5133 13.1135 59.8002 13.1206C60.9401 13.1206 61.6603 14.0136 61.6603 15.4448ZM60.7507 15.4448C60.7507 14.4936 60.3026 13.9189 59.5534 13.9189C58.809 13.9189 58.3434 14.5058 58.3434 15.4487C58.3434 16.3872 58.8089 16.9746 59.5495 16.9746C60.3026 16.9745 60.7507 16.3998 60.7507 15.4448Z" fill="white"/>
<path d="M62.8386 19.311V18.5459C62.9343 18.5581 63.0308 18.5637 63.1272 18.5625C63.3156 18.5765 63.5026 18.5201 63.6522 18.4041C63.8017 18.2882 63.9034 18.1208 63.9377 17.9341L64.0038 17.7148L62.3818 13.1953H63.3449L64.4684 16.772H64.5384L65.6579 13.1953H66.5957L64.9252 17.8843C64.5423 18.98 64.1185 19.3315 63.205 19.3315C63.1312 19.3315 62.9212 19.3232 62.8386 19.311Z" fill="white"/>
<path d="M67.2842 16.4195H68.1647C68.2511 16.8165 68.6214 17.0235 69.1394 17.0235C69.7283 17.0235 70.0899 16.7628 70.0899 16.3575C70.0899 15.9234 69.7653 15.7164 69.1394 15.7164H68.4688V15.026H69.1277C69.6622 15.026 69.9344 14.8195 69.9344 14.443C69.9344 14.1124 69.671 13.86 69.1277 13.86C68.6331 13.86 68.2716 14.0709 68.2142 14.4264H67.3619C67.4256 14.0179 67.6463 13.6509 67.9766 13.4043C68.3068 13.1577 68.7201 13.0511 69.1277 13.1076C70.1929 13.1076 70.8022 13.5914 70.8022 14.3522C70.8072 14.564 70.7396 14.7712 70.6108 14.939C70.4821 15.1068 70.2999 15.2251 70.0947 15.2741V15.3444C70.339 15.376 70.5632 15.4967 70.7247 15.6835C70.8863 15.8702 70.9741 16.1101 70.9713 16.3575C70.9713 17.2135 70.2463 17.7799 69.1394 17.7799C68.1608 17.7799 67.3658 17.3292 67.2842 16.4195Z" fill="white"/>
<path d="M72.2451 17.6973V13.1943H73.1217V16.2915H73.1917L75.2568 13.1943H76.1334V17.6973H75.2568V14.5835H75.1907L73.1217 17.6973L72.2451 17.6973Z" fill="white"/>
<path d="M80.9595 13.9433H79.5484V17.6982H78.6631V13.9433H77.252V13.1953H80.9595V13.9433Z" fill="white"/>
<path d="M85.7261 16.4815C85.6056 16.893 85.3451 17.2489 84.99 17.487C84.6349 17.7252 84.2079 17.8303 83.7834 17.7842C83.4882 17.7921 83.1948 17.7353 82.9236 17.6177C82.6525 17.5002 82.41 17.3248 82.213 17.1036C82.0161 16.8825 81.8694 16.6209 81.7831 16.3371C81.6968 16.0533 81.6731 15.754 81.7134 15.46C81.6741 15.1651 81.6983 14.8652 81.7844 14.5805C81.8705 14.2959 82.0164 14.0331 82.2123 13.81C82.4082 13.587 82.6495 13.4088 82.9199 13.2876C83.1903 13.1664 83.4835 13.105 83.7796 13.1075C85.0264 13.1075 85.7796 13.9635 85.7796 15.3775V15.6876H82.6153V15.7374C82.6013 15.9027 82.6219 16.0691 82.6757 16.2259C82.7295 16.3827 82.8153 16.5265 82.9277 16.648C83.0401 16.7695 83.1765 16.866 83.3283 16.9313C83.48 16.9967 83.6437 17.0294 83.8087 17.0274C84.0201 17.0528 84.2343 17.0144 84.4239 16.9172C84.6136 16.82 84.7702 16.6684 84.8738 16.4815L85.7261 16.4815ZM82.6153 15.0304H84.8777C84.8889 14.8793 84.8685 14.7276 84.8178 14.5849C84.7672 14.4422 84.6874 14.3118 84.5837 14.2019C84.4799 14.0921 84.3544 14.0053 84.2152 13.9471C84.0761 13.8888 83.9263 13.8605 83.7757 13.8639C83.6227 13.8618 83.4708 13.8905 83.329 13.9484C83.1873 14.0063 83.0585 14.0921 82.9503 14.2009C82.8422 14.3096 82.7568 14.4391 82.6993 14.5815C82.6417 14.724 82.6132 14.8766 82.6153 15.0304H82.6153Z" fill="white"/>
<path d="M89.4746 13.1943H91.495C92.3716 13.1943 92.8857 13.6406 92.8857 14.3393C92.8871 14.561 92.8126 14.7765 92.6748 14.9496C92.537 15.1228 92.3442 15.2431 92.1287 15.2905V15.3608C92.3904 15.3774 92.6357 15.4944 92.8141 15.6876C92.9924 15.8808 93.09 16.1354 93.0869 16.3989C93.0869 17.1845 92.4989 17.6972 91.5154 17.6972H89.4746V13.1943ZM90.3512 13.8765V15.0425H91.2278C91.7623 15.0425 92.0179 14.8359 92.0179 14.4551C92.0179 14.104 91.7954 13.8765 91.326 13.8765L90.3512 13.8765ZM90.3512 15.6958V17.0151H91.3998C91.9227 17.0151 92.2026 16.7832 92.2026 16.3574C92.2026 15.9067 91.8858 15.6958 91.289 15.6958L90.3512 15.6958Z" fill="white"/>
</svg>
