<svg width="16" height="16" viewBox="0 0 16 16" fill="none" xmlns="http://www.w3.org/2000/svg">
<g clip-path="url(#clip0_624_443)">
<path d="M5.4998 15.075V11.625L2.9248 13.525C3.6498 14.2 4.5248 14.725 5.4998 15.075M10.4998 15.075C11.4748 14.725 12.3498 14.2 13.0748 13.525L10.4998 11.6V15.075M0.924805 10.5C0.999805 10.75 1.0998 10.975 1.2248 11.225L2.1998 10.5H0.924805ZM13.7998 10.5L14.7748 11.225C14.8748 11 14.9748 10.75 15.0748 10.5H13.7998Z" fill="#2A5F9E"/>
<path d="M5.87539 9.5H0.650391C0.725391 9.85 0.825391 10.175 0.925391 10.5H2.20039L1.22539 11.225C1.42539 11.65 1.65039 12.025 1.92539 12.4L4.50039 10.5H5.50039V11L2.57539 13.15L2.92539 13.5L5.50039 11.625V15.075C5.82539 15.2 6.15039 15.275 6.50039 15.35V9.5H5.87539ZM15.3504 9.5H9.50039V15.35C9.85039 15.275 10.1754 15.175 10.5004 15.075V11.625L13.0754 13.5C13.4254 13.175 13.7254 12.825 14.0254 12.45L11.3504 10.5H13.0504L14.5754 11.625C14.6504 11.5 14.7254 11.35 14.7754 11.225L13.8004 10.5H15.0754C15.1754 10.175 15.2754 9.85 15.3504 9.5" fill="white"/>
<path d="M1.9248 12.4C2.1248 12.675 2.3248 12.925 2.5498 13.175L5.4998 11.025V10.525H4.4998L1.9248 12.4ZM11.3748 10.5L14.0498 12.45C14.1498 12.325 14.2248 12.2 14.3248 12.075C14.3498 12.05 14.3498 12.025 14.3748 12.025C14.4498 11.9 14.5498 11.75 14.6248 11.625L13.0498 10.5H11.3748Z" fill="#ED4C5C"/>
<path d="M10.4998 0.925781V4.37578L13.0748 2.47578C12.3498 1.80078 11.4748 1.27578 10.4998 0.925781ZM5.4998 0.925781C4.5248 1.27578 3.6498 1.80078 2.9248 2.47578L5.4998 4.40078V0.925781ZM15.0748 5.50078C14.9998 5.25078 14.8998 5.02578 14.7748 4.77578L13.7998 5.50078H15.0748M2.1998 5.50078L1.2248 4.77578C1.1248 5.02578 1.0248 5.25078 0.924805 5.50078H2.1998Z" fill="#2A5F9E"/>
<path d="M10.1254 6.50039H15.3254C15.2504 6.15039 15.1504 5.82539 15.0504 5.50039H13.7754L14.7504 4.77539C14.5504 4.35039 14.3254 3.97539 14.0504 3.60039L11.5004 5.50039H10.5004V5.00039L13.4254 2.85039L13.0754 2.50039L10.5004 4.37539V0.925391C10.1754 0.800391 9.85039 0.725391 9.50039 0.650391V6.50039H10.1254ZM0.650391 6.50039H6.50039V0.650391C6.15039 0.725391 5.82539 0.825391 5.50039 0.925391V4.37539L2.92539 2.50039C2.57539 2.82539 2.27539 3.17539 1.97539 3.55039L4.65039 5.50039H2.95039L1.42539 4.37539C1.35039 4.50039 1.27539 4.65039 1.22539 4.77539L2.20039 5.50039H0.925391C0.825391 5.82539 0.725391 6.15039 0.650391 6.50039Z" fill="white"/>
<path d="M14.0754 3.59922C13.8754 3.32422 13.6754 3.07422 13.4504 2.82422L10.5004 4.97422V5.47422H11.5004L14.0754 3.59922M4.62539 5.49922L1.97539 3.54922C1.87539 3.67422 1.80039 3.79922 1.70039 3.92422C1.67539 3.94922 1.67539 3.97422 1.65039 3.97422C1.57539 4.09922 1.47539 4.24922 1.40039 4.37422L2.92539 5.49922H4.62539Z" fill="#ED4C5C"/>
<path d="M15.35 6.5H9.5V0.65C9.025 0.55 8.525 0.5 8 0.5C7.475 0.5 6.975 0.55 6.5 0.65V6.5H0.65C0.55 6.975 0.5 7.475 0.5 8C0.5 8.525 0.55 9.025 0.65 9.5H6.5V15.35C6.975 15.45 7.475 15.5 8 15.5C8.525 15.5 9.025 15.45 9.5 15.35V9.5H15.35C15.45 9.025 15.5 8.525 15.5 8C15.5 7.475 15.45 6.975 15.35 6.5Z" fill="#ED4C5C"/>
</g>
<defs>
<clipPath id="clip0_624_443">
<rect width="16" height="16" fill="white"/>
</clipPath>
</defs>
</svg>
