<svg width="20" height="20" viewBox="0 0 20 20" fill="none" xmlns="http://www.w3.org/2000/svg">
  <g opacity="0.9">
    <path
      d="M8.66667 2C10.5 2 12 3.5 12 5.33333C12 7.16667 10.5 8.66667 8.66667 8.66667C6.83333 8.66667 5.33333 7.16667 5.33333 5.33333C5.33333 3.5 6.83333 2 8.66667 2ZM14.5 16.1667L16 17.6417C16.4167 18.0583 17 17.725 17 17.2333V13.6667L19.3333 10.8333C19.4262 10.7095 19.4827 10.5623 19.4966 10.4082C19.5105 10.254 19.4812 10.0991 19.412 9.96066C19.3428 9.82223 19.2364 9.70582 19.1048 9.62446C18.9731 9.5431 18.8214 9.5 18.6667 9.5H12.8333C12.1667 9.5 11.75 10.3333 12.1667 10.8333L14.5 13.6667V16.1667ZM12.8333 14.25L10.9167 11.9167C10.5833 11.5 10.4167 11 10.4167 10.5C9.83333 10.3333 9.25 10.3333 8.66667 10.3333C5 10.3333 2 11.8333 2 13.6667V15.3333H12.8333V14.25Z"
      fill-rule="evenodd" clip-rule="evenodd" fill="url(#paint0_linear_241_13517)" />
  </g>
  <defs>
    <linearGradient id="paint0_linear_241_13517" x1="2.56498" y1="1.26532" x2="11.2784" y2="20.5461"
      gradientUnits="userSpaceOnUse">
      <stop stop-color="#4375BF" />
      <stop offset="0.916667" stop-color="#43A9BF" stop-opacity="0.77" />
    </linearGradient>
  </defs>
</svg>