<svg width="36" height="36" viewBox="0 0 36 36" fill="none" xmlns="http://www.w3.org/2000/svg">
<path d="M16 6C19.3 6 22 8.7 22 12C22 15.3 19.3 18 16 18C12.7 18 10 15.3 10 12C10 8.7 12.7 6 16 6ZM26.5 31.5L29.2 34.155C29.95 34.905 31 34.305 31 33.42V27L35.2 21.9C35.3671 21.6771 35.4689 21.4122 35.4939 21.1347C35.519 20.8573 35.4662 20.5783 35.3416 20.3292C35.2171 20.08 35.0256 19.8705 34.7886 19.724C34.5516 19.5776 34.2786 19.5 34 19.5H23.5C22.3 19.5 21.55 21 22.3 21.9L26.5 27V31.5ZM23.5 28.05L20.05 23.85C19.45 23.1 19.15 22.2 19.15 21.3C18.1 21 17.05 21 16 21C9.4 21 4 23.7 4 27V30H23.5V28.05Z" fill="url(#paint0_linear_241_13486)"/>
<defs>
<linearGradient id="paint0_linear_241_13486" x1="5.65092" y1="6.46131" x2="20.24" y2="40.5959" gradientUnits="userSpaceOnUse">
<stop stop-color="#4375BF"/>
<stop offset="0.83063" stop-color="#43A9BF" stop-opacity="0.77"/>
</linearGradient>
</defs>
</svg>
