<svg width="36" height="36" viewBox="0 0 36 36" fill="none" xmlns="http://www.w3.org/2000/svg">
<g opacity="0.9">
<path fill-rule="evenodd" clip-rule="evenodd" d="M11.9748 33.4275C8.13359 33.3607 5.07837 30.1967 5.1436 26.3758V9.54485C5.23214 5.69127 8.41318 2.58789 12.2388 2.58789H12.2683L21.214 2.57031C21.5309 2.57031 22.922 2.98484 23.1426 3.21317L30.8569 10.9275C31.065 11.1434 31.6279 12.2599 31.6279 12.5597V26.396C31.6341 30.2309 28.5183 33.3855 24.6834 33.4259L11.9748 33.4275Z" fill="url(#paint0_linear_250_15321)"/>
<path fill-rule="evenodd" clip-rule="evenodd" d="M31.6263 13.4182H26.3036C23.4597 13.4104 21.1484 11.093 21.1484 8.25368V2.57031C21.3403 2.57031 21.5952 2.57031 21.8584 2.57031C22.6783 2.57031 23.4626 2.90591 24.0287 3.49906L30.7966 10.5904C31.3292 11.1485 31.6263 11.8904 31.6263 12.6618C31.6263 13.0795 31.6263 13.4182 31.6263 13.4182Z" fill="#5A8BC6"/>
<path d="M12 23C12 24.1046 12.8954 25 14 25H24C24 22.7909 22.2091 21 20 21H14C12.8954 21 12 21.8954 12 23Z" fill="white"/>
<circle cx="18" cy="16" r="3" fill="#FCFCFC"/>
</g>
<defs>
<linearGradient id="paint0_linear_250_15321" x1="6.53068" y1="3.06986" x2="24.9987" y2="36.6203" gradientUnits="userSpaceOnUse">
<stop stop-color="#4375BF"/>
<stop offset="0.83063" stop-color="#43A9BF" stop-opacity="0.77"/>
</linearGradient>
</defs>
</svg>
