<svg width="28" height="28" viewBox="0 0 28 28" fill="none" xmlns="http://www.w3.org/2000/svg">
<path d="M5 14.0045C5 14.2753 5.12361 14.5461 5.34231 14.7447L11.6181 20.6931C11.8463 20.9007 12.0935 21 12.3693 21C12.9683 21 13.4057 20.5938 13.4057 20.0432C13.4057 19.7544 13.2916 19.5106 13.0919 19.3301L10.9525 17.2721L8.19493 14.8801L10.4105 15.0064H21.935C22.5626 15.0064 23 14.5912 23 14.0045C23 13.4088 22.5626 12.9936 21.935 12.9936H10.4105L8.20444 13.1199L10.9525 10.7279L13.0919 8.66989C13.2916 8.48936 13.4057 8.24565 13.4057 7.9568C13.4057 7.40619 12.9683 7 12.3693 7C12.0935 7 11.8368 7.09929 11.5895 7.32495L5.34231 13.2553C5.12361 13.4539 5 13.7247 5 14.0045Z" fill="#4392BF"/>
</svg>
