<svg width="36" height="36" viewBox="0 0 36 36" fill="none" xmlns="http://www.w3.org/2000/svg">
<g opacity="0.9">
<path fill-rule="evenodd" clip-rule="evenodd" d="M33.8054 18.0627C33.8054 13.3011 26.1915 7 17.9027 7C9.61386 7 2 13.3011 2 18.0627C2 22.8244 9.61386 29.1255 17.9027 29.1255C26.1915 29.1255 33.8054 22.8244 33.8054 18.0627ZM17.9025 23.596C20.9574 23.596 23.4338 21.1195 23.4338 18.0646C23.4338 15.0097 20.9574 12.5332 17.9025 12.5332C14.8476 12.5332 12.3711 15.0097 12.3711 18.0646C12.3711 21.1195 14.8476 23.596 17.9025 23.596Z" fill="url(#paint0_linear_250_16285)"/>
<path d="M15.8574 18.125C15.8574 19.2296 16.7532 20.125 17.8544 20.125C18.9589 20.125 19.8574 19.2268 19.8574 18.1189V16.125H17.8514C16.7501 16.125 15.8574 17.0204 15.8574 18.125Z" fill="#69A5CB"/>
</g>
<defs>
<linearGradient id="paint0_linear_250_16285" x1="3.66693" y1="7.35819" x2="12.965" y2="35.648" gradientUnits="userSpaceOnUse">
<stop stop-color="#4375BF"/>
<stop offset="0.916667" stop-color="#77BCD0"/>
</linearGradient>
</defs>
</svg>
