<svg width="36" height="36" viewBox="0 0 36 36" fill="none" xmlns="http://www.w3.org/2000/svg">
<path fill-rule="evenodd" clip-rule="evenodd" d="M16.6577 3.85742H19.3417C21.0942 3.85741 22.4879 3.8574 23.6124 3.94928C24.7639 4.04336 25.7458 4.24015 26.6448 4.69823C28.0963 5.43782 29.2765 6.61796 30.0161 8.0695C30.4741 8.96853 30.6709 9.95039 30.765 11.1019C30.8569 12.2263 30.8569 13.6201 30.8569 15.3726V26.4877C30.8569 27.7823 30.8569 28.8428 30.7822 29.6639C30.7082 30.4768 30.546 31.312 30.0241 31.9713C29.2997 32.8866 28.1997 33.4245 27.0325 33.4345C26.1917 33.4416 25.4329 33.0569 24.7458 32.6162C24.0518 32.1711 23.2146 31.52 22.1927 30.7252L19.7363 28.8146C18.739 28.0389 18.5242 27.9028 18.3357 27.8517C18.1157 27.7921 17.8838 27.7921 17.6637 27.8517C17.4752 27.9028 17.2604 28.0389 16.2631 28.8146L13.8066 30.7252C12.7848 31.52 11.9477 32.1711 11.2537 32.6162C10.5666 33.0569 9.80777 33.4416 8.9669 33.4345C7.7997 33.4245 6.69977 32.8866 5.97534 31.9713C5.45345 31.312 5.29125 30.4768 5.21727 29.6639C5.14254 28.8428 5.14256 27.7823 5.14258 26.4877V15.3726C5.14257 13.6201 5.14256 12.2264 5.23443 11.1019C5.32851 9.95039 5.52531 8.96853 5.98339 8.0695C6.72298 6.61796 7.90312 5.43782 9.35465 4.69823C10.2537 4.24015 11.2355 4.04336 12.387 3.94928C13.5115 3.8574 14.9053 3.85741 16.6577 3.85742Z" fill="url(#paint0_linear_250_15028)"/>
<path d="M13.4989 14.1426C12.4338 14.1426 11.5703 15.006 11.5703 16.0711C11.5703 17.1363 12.4338 17.9997 13.4989 17.9997H20.5703C22.7006 17.9997 24.4275 16.2728 24.4275 14.1426H13.4989Z" fill="white"/>
<defs>
<linearGradient id="paint0_linear_250_15028" x1="6.49027" y1="4.33624" x2="24.0701" y2="36.6854" gradientUnits="userSpaceOnUse">
<stop stop-color="#4375BF"/>
<stop offset="0.83063" stop-color="#43A9BF" stop-opacity="0.77"/>
</linearGradient>
</defs>
</svg>
