<svg width="36" height="36" viewBox="0 0 36 36" fill="none" xmlns="http://www.w3.org/2000/svg">
<path d="M7.03125 3.375C6.06155 3.375 5.13157 3.76252 4.44589 4.45231C3.76021 5.14211 3.375 6.07767 3.375 7.05318L3.375 30.5807C3.37504 30.7626 3.42873 30.9404 3.52929 31.0917C3.62984 31.2429 3.77274 31.3608 3.93989 31.4303C4.10704 31.4998 4.29093 31.5178 4.46828 31.4822C4.64564 31.4465 4.80849 31.3587 4.93622 31.2298L10.1519 25.9829C10.4946 25.638 10.9595 25.4442 11.4443 25.4441H28.9688C29.9384 25.4441 30.8684 25.0566 31.5541 24.3668C32.2398 23.677 32.625 22.7414 32.625 21.7659V7.05318C32.625 6.07767 32.2398 5.14211 31.5541 4.45231C30.8684 3.76252 29.9384 3.375 28.9688 3.375H7.03125Z" fill="url(#paint0_linear_250_15302)"/>
<path d="M22.5 14.625C22.5 12.1397 20.4845 10.125 18.0067 10.125C15.5217 10.125 13.5 12.1459 13.5 14.6388V19.125H18.0136C20.4914 19.125 22.5 17.1103 22.5 14.625Z" fill="#F8F8F8"/>
<defs>
<linearGradient id="paint0_linear_250_15302" x1="5.91722" y1="3.83608" x2="20.8549" y2="37.5714" gradientUnits="userSpaceOnUse">
<stop stop-color="#4375BF"/>
<stop offset="0.83063" stop-color="#43A9BF" stop-opacity="0.77"/>
</linearGradient>
</defs>
</svg>
