<svg width="20" height="20" viewBox="0 0 20 20" fill="none" xmlns="http://www.w3.org/2000/svg">
  <g opacity="0.9">
    <path
      d="M3.90625 1.875C3.36753 1.875 2.85087 2.09029 2.46994 2.47351C2.08901 2.85673 1.875 3.37648 1.875 3.91843L1.875 16.9893C1.87502 17.0903 1.90485 17.1891 1.96072 17.2732C2.01658 17.3572 2.09597 17.4226 2.18883 17.4613C2.28169 17.4999 2.38385 17.5099 2.48238 17.4901C2.58091 17.4703 2.67138 17.4215 2.74234 17.3499L5.63992 14.435C5.83034 14.2433 6.08863 14.1357 6.35797 14.1356H16.0938C16.6325 14.1356 17.1491 13.9203 17.5301 13.5371C17.911 13.1539 18.125 12.6341 18.125 12.0922V3.91843C18.125 3.37648 17.911 2.85673 17.5301 2.47351C17.1491 2.09029 16.6325 1.875 16.0938 1.875H3.90625Z"
      fill-rule="evenodd" clip-rule="evenodd" fill="url(#paint0_linear_241_13517)" />
    <path
      d="M12.5 8.12499C12.5 6.74428 11.3803 5.625 10.0037 5.625C8.62315 5.625 7.5 6.74771 7.5 8.13265V10.625H10.0076C11.3841 10.625 12.5 9.5057 12.5 8.12499Z"
      fill="#F8F8F8" />
  </g>
  <defs>
    <linearGradient id="paint0_linear_241_13517" x1="2.56498" y1="1.26532" x2="11.2784" y2="20.5461"
      gradientUnits="userSpaceOnUse">
      <stop stop-color="#4375BF" />
      <stop offset="0.916667" stop-color="#43A9BF" stop-opacity="0.77" />
    </linearGradient>
  </defs>
</svg>