<svg width="36" height="36" viewBox="0 0 36 36" fill="none" xmlns="http://www.w3.org/2000/svg">
<path fill-rule="evenodd" clip-rule="evenodd" d="M33 18C33 26.2843 26.2843 33 18 33C9.71573 33 3 26.2843 3 18C3 9.71573 9.71573 3 18 3C26.2843 3 33 9.71573 33 18ZM25.0397 12.9369C25.0397 12.0428 23.956 11.5981 23.3279 12.2345L21.6958 13.8883C21.4846 14.1023 21.1337 14.0829 20.9475 13.847L19.0899 11.4941C18.6895 10.987 17.9205 10.987 17.5201 11.4941L15.6625 13.847C15.4763 14.0829 15.1254 14.1023 14.9142 13.8883L13.2821 12.2345C12.654 11.5981 11.5703 12.0428 11.5703 12.9369V19.8571C11.5703 20.1333 11.7942 20.3571 12.0703 20.3571H24.5397C24.8158 20.3571 25.0397 20.1333 25.0397 19.8571V12.9369ZM13.0669 24.5818H23.5431C23.94 24.5818 24.3207 24.422 24.6014 24.1376C24.882 23.8532 25.0397 23.4675 25.0397 23.0653V21.5488H11.5703V23.0653C11.5703 23.4675 11.728 23.8532 12.0087 24.1376C12.2893 24.422 12.67 24.5818 13.0669 24.5818Z" fill="#D9D9D9"/>
<path fill-rule="evenodd" clip-rule="evenodd" d="M33 18C33 26.2843 26.2843 33 18 33C9.71573 33 3 26.2843 3 18C3 9.71573 9.71573 3 18 3C26.2843 3 33 9.71573 33 18ZM25.0397 12.9369C25.0397 12.0428 23.956 11.5981 23.3279 12.2345L21.6958 13.8883C21.4846 14.1023 21.1337 14.0829 20.9475 13.847L19.0899 11.4941C18.6895 10.987 17.9205 10.987 17.5201 11.4941L15.6625 13.847C15.4763 14.0829 15.1254 14.1023 14.9142 13.8883L13.2821 12.2345C12.654 11.5981 11.5703 12.0428 11.5703 12.9369V19.8571C11.5703 20.1333 11.7942 20.3571 12.0703 20.3571H24.5397C24.8158 20.3571 25.0397 20.1333 25.0397 19.8571V12.9369ZM13.0669 24.5818H23.5431C23.94 24.5818 24.3207 24.422 24.6014 24.1376C24.882 23.8532 25.0397 23.4675 25.0397 23.0653V21.5488H11.5703V23.0653C11.5703 23.4675 11.728 23.8532 12.0087 24.1376C12.2893 24.422 12.67 24.5818 13.0669 24.5818Z" fill="url(#paint0_linear_250_15338)"/>
<defs>
<linearGradient id="paint0_linear_250_15338" x1="4.57231" y1="3.48567" x2="20.9885" y2="38.2314" gradientUnits="userSpaceOnUse">
<stop stop-color="#4375BF"/>
<stop offset="0.83063" stop-color="#43A9BF" stop-opacity="0.77"/>
</linearGradient>
</defs>
</svg>
