<svg width="20" height="20" viewBox="0 0 20 20" fill="none" xmlns="http://www.w3.org/2000/svg">
<path fill-rule="evenodd" clip-rule="evenodd" d="M12.6022 17.8578H10.7145C10.32 17.8578 10.0002 17.538 10.0002 17.1435C10.0002 16.749 10.32 16.4293 10.7145 16.4293H12.5716C13.3835 16.4293 13.9494 16.4287 14.39 16.3927C14.8223 16.3574 15.0706 16.2915 15.2587 16.1957C15.6619 15.9902 15.9897 15.6624 16.1952 15.2592C16.291 15.0711 16.3569 14.8228 16.3922 14.3905C16.4282 13.9499 16.4288 13.384 16.4288 12.5721V7.42927C16.4288 6.6174 16.4282 6.05146 16.3922 5.61086C16.3569 5.1786 16.291 4.93025 16.1952 4.74215C15.9897 4.33894 15.6619 4.01112 15.2587 3.80568C15.0706 3.70983 14.8223 3.64399 14.39 3.60867C13.9494 3.57267 13.3835 3.57213 12.5716 3.57213H10.7145C10.32 3.57213 10.0002 3.25232 10.0002 2.85783C10.0002 2.46334 10.32 2.14355 10.7145 2.14355H12.6022C13.3763 2.14354 14.0007 2.14353 14.5063 2.18484C15.0269 2.22738 15.4842 2.31725 15.9073 2.53281C16.5793 2.87521 17.1257 3.42158 17.4681 4.09359C17.6836 4.51666 17.7735 4.97393 17.816 5.49453C17.8573 6.00016 17.8573 6.62456 17.8573 7.39868V12.6027C17.8573 13.3768 17.8573 14.0012 17.816 14.5068C17.7735 15.0274 17.6836 15.4847 17.4681 15.9078C17.1257 16.5798 16.5793 17.1262 15.9073 17.4686C15.4842 17.6841 15.0269 17.774 14.5063 17.8165C14.0007 17.8578 13.3763 17.8578 12.6022 17.8578ZM6.21957 13.3629C5.94063 13.6418 5.48837 13.6418 5.20942 13.3629L2.35228 10.5058C2.21832 10.3718 2.14307 10.1901 2.14307 10.0007C2.14307 9.81126 2.21832 9.62957 2.35228 9.49562L5.20942 6.63847C5.48837 6.35952 5.94063 6.35952 6.21957 6.63847C6.49852 6.91743 6.49852 7.36968 6.21957 7.64862L4.58179 9.2864H11.4288C11.8232 9.2864 12.143 9.60621 12.143 10.0007C12.143 10.3952 11.8232 10.715 11.4288 10.715H4.58179L6.21957 12.3527C6.49852 12.6317 6.49852 13.084 6.21957 13.3629Z" fill="#BF434A"/>
</svg>
