<svg width="20" height="20" viewBox="0 0 20 20" fill="none" xmlns="http://www.w3.org/2000/svg">
  <g opacity="0.9">
    <path
      d="M7.71563 9.98438C9.7662 9.98438 11.4281 8.32286 11.4281 6.27344C11.4281 4.22401 9.7662 2.5625 7.71563 2.5625C5.66505 2.5625 4.00313 4.22401 4.00313 6.27344C4.00313 8.32286 5.66505 9.98438 7.71563 9.98438ZM9.18612 11.376H6.24513C3.46858 11.376 1.21875 13.6257 1.21875 16.4002C1.21875 16.9569 1.66889 17.4062 2.22403 17.4062H13.2061C13.7629 17.4062 14.2125 16.9569 14.2125 16.4002C14.2125 13.6257 11.9618 11.376 9.18612 11.376ZM15.1145 11.8398H12.9726C14.3053 12.9328 15.1406 14.568 15.1406 16.4002C15.1406 16.7713 15.0304 17.1134 14.8506 17.4062H18.8531C19.3665 17.4062 19.7812 16.9888 19.7812 16.4524C19.7812 13.9156 17.7046 11.8398 15.1145 11.8398ZM13.7484 9.98438C15.5438 9.98438 16.9969 8.53189 16.9969 6.7373C16.9969 4.94272 15.5438 3.49023 13.7484 3.49023C13.0201 3.49023 12.3551 3.73826 11.8133 4.14284C12.1474 4.78413 12.3563 5.50226 12.3563 6.27344C12.3563 7.30322 12.0102 8.24893 11.44 9.01924C12.0285 9.61328 12.8435 9.98438 13.7484 9.98438Z"
      fill-rule="evenodd" clip-rule="evenodd" fill="url(#paint0_linear_241_13517)" />
  </g>
  <defs>
    <linearGradient id="paint0_linear_241_13517" x1="2.56498" y1="1.26532" x2="11.2784" y2="20.5461"
      gradientUnits="userSpaceOnUse">
      <stop stop-color="#4375BF" />
      <stop offset="0.916667" stop-color="#43A9BF" stop-opacity="0.77" />
    </linearGradient>
  </defs>
</svg>