<svg width="36" height="36" viewBox="0 0 36 36" fill="none" xmlns="http://www.w3.org/2000/svg">
<path d="M31.3049 20.5776H31.3049C29.1965 20.5776 27.4873 22.3159 27.4873 24.4601V30.6293C27.4873 32.7735 29.1965 34.5118 31.3049 34.5118H31.3049C33.4133 34.5118 35.1225 32.7735 35.1225 30.6293V24.4601C35.1225 22.3159 33.4133 20.5776 31.3049 20.5776Z" fill="#DFDFDF"/>
<path d="M3.81763 2H3.8176C1.7092 2 0 3.73823 0 5.88245V15.1482C0 17.2924 1.7092 19.0306 3.8176 19.0306H3.81763C5.92603 19.0306 7.63522 17.2924 7.63522 15.1482V5.88245C7.63522 3.73823 5.92603 2 3.81763 2Z" fill="#DFDFDF"/>
<path d="M18.3247 6.25878V6.25881C18.3247 8.39648 20.0287 10.1294 22.1306 10.1294H31.3162C33.4182 10.1294 35.1222 8.39648 35.1222 6.25881V6.25878C35.1222 4.12112 33.4182 2.3882 31.3162 2.3882L22.1306 2.3882C20.0287 2.3882 18.3247 4.12112 18.3247 6.25878Z" fill="#DFDFDF"/>
<path d="M0 24.4507L0 24.4507C0 26.5884 1.70397 28.3213 3.80593 28.3213H12.9915C15.0935 28.3213 16.7975 26.5884 16.7975 24.4507V24.4507C16.7975 22.313 15.0935 20.5801 12.9915 20.5801H3.80593C1.70397 20.5801 0 22.313 0 24.4507Z" fill="#DFDFDF" fill-opacity="0.5"/>
<path d="M9.1626 15.1592V15.1592C9.1626 17.2969 10.8666 19.0298 12.9685 19.0298H22.1541C24.2561 19.0298 25.9601 17.2969 25.9601 15.1592V15.1592C25.9601 13.0215 24.2561 11.2886 22.1541 11.2886H12.9685C10.8666 11.2886 9.1626 13.0215 9.1626 15.1592Z" fill="#DFDFDF" fill-opacity="0.5"/>
<path d="M18.3247 24.4482C18.3247 22.3106 20.0343 20.5776 22.1364 20.5776C24.2447 20.5776 25.9598 22.3159 25.9598 24.4601V28.3189H22.1305C20.0287 28.3189 18.3247 26.5859 18.3247 24.4482Z" fill="#DFDFDF"/>
<path d="M9.1626 6.2588C9.1626 4.1211 10.8724 2.38818 12.9744 2.38818C15.0828 2.38818 16.7978 4.12644 16.7978 6.27066V10.1294H12.9685C10.8666 10.1294 9.1626 8.39646 9.1626 6.2588Z" fill="#DFDFDF" fill-opacity="0.5"/>
<path d="M27.4858 15.1594C27.4858 13.0217 29.1957 11.2888 31.2978 11.2888C33.4061 11.2888 35.1213 13.027 35.1213 15.1713V19.03H31.292C29.1899 19.03 27.4858 17.2971 27.4858 15.1594Z" fill="#DFDFDF" fill-opacity="0.5"/>
</svg>
