<svg width="36" height="36" viewBox="0 0 36 36" fill="none" xmlns="http://www.w3.org/2000/svg">
<path fill-rule="evenodd" clip-rule="evenodd" d="M3 18C3 9.7155 9.7155 3 18 3C26.2845 3 33 9.7155 33 18C33 26.2845 26.2845 33 18 33C9.7155 33 3 26.2845 3 18ZM15 12C14.01 12 12.558 12.285 11.31 13.182C9.9885 14.136 9 15.711 9 18C9 20.289 9.987 21.864 11.31 22.8165C12.3918 23.5756 13.6785 23.9883 15 24C15.3978 24 15.7794 23.842 16.0607 23.5607C16.342 23.2794 16.5 22.8978 16.5 22.5C16.5 22.1022 16.342 21.7206 16.0607 21.4393C15.7794 21.158 15.3978 21 15 21C14.49 21 13.692 20.835 13.065 20.382C12.5115 19.9875 12 19.311 12 18C12 16.689 12.513 16.014 13.065 15.618C13.6905 15.165 14.49 15 15 15C15.3978 15 15.7794 14.842 16.0607 14.5607C16.342 14.2794 16.5 13.8978 16.5 13.5C16.5 13.1022 16.342 12.7206 16.0607 12.4393C15.7794 12.158 15.3978 12 15 12ZM21 12C20.6022 12 20.2206 12.158 19.9393 12.4393C19.658 12.7206 19.5 13.1022 19.5 13.5C19.5 13.8978 19.658 14.2794 19.9393 14.5607C20.2206 14.842 20.6022 15 21 15C21.51 15 22.308 15.165 22.935 15.618C23.487 16.014 24 16.689 24 18C24 19.311 23.487 19.986 22.935 20.382C22.308 20.835 21.51 21 21 21C20.803 21 20.608 21.0388 20.426 21.1142C20.244 21.1896 20.0786 21.3001 19.9393 21.4393C19.8001 21.5786 19.6896 21.744 19.6142 21.926C19.5388 22.108 19.5 22.303 19.5 22.5C19.5 22.697 19.5388 22.892 19.6142 23.074C19.6896 23.256 19.8001 23.4214 19.9393 23.5607C20.0786 23.6999 20.244 23.8104 20.426 23.8858C20.608 23.9612 20.803 24 21 24C21.99 24 23.442 23.715 24.69 22.8165C26.0115 21.864 27 20.289 27 18C27 15.711 26.013 14.136 24.69 13.182C23.6081 12.4235 22.3213 12.0113 21 12ZM15 16.5C14.6022 16.5 14.2206 16.658 13.9393 16.9393C13.658 17.2206 13.5 17.6022 13.5 18C13.5 18.3978 13.658 18.7794 13.9393 19.0607C14.2206 19.342 14.6022 19.5 15 19.5H21C21.3978 19.5 21.7794 19.342 22.0607 19.0607C22.342 18.7794 22.5 18.3978 22.5 18C22.5 17.6022 22.342 17.2206 22.0607 16.9393C21.7794 16.658 21.3978 16.5 21 16.5H15Z" fill="url(#paint0_linear_250_15332)"/>
<defs>
<linearGradient id="paint0_linear_250_15332" x1="4.57231" y1="3.48567" x2="20.9885" y2="38.2314" gradientUnits="userSpaceOnUse">
<stop stop-color="#4375BF"/>
<stop offset="0.83063" stop-color="#43A9BF" stop-opacity="0.77"/>
</linearGradient>
</defs>
</svg>
