<svg width="36" height="36" viewBox="0 0 36 36" fill="none" xmlns="http://www.w3.org/2000/svg">
<path d="M30.375 18C30.375 16.2628 28.9875 14.85 27.2812 14.85H25.7344V10.125C25.7344 5.78273 22.2647 2.25 18 2.25C13.7353 2.25 10.2656 5.78273 10.2656 10.125V14.85H8.71875C7.01255 14.85 5.625 16.2628 5.625 18V30.6C5.625 32.3372 7.01255 33.75 8.71875 33.75H27.2812C28.9875 33.75 30.375 32.3372 30.375 30.6V18ZM14.0625 10.125C14.0625 7.51995 15.4415 6.1875 18 6.1875C20.5585 6.1875 21.9375 7.51995 21.9375 10.125V14.85H14.0625V10.125Z" fill="url(#paint0_linear_250_15289)"/>
<path d="M14.625 23.625C14.625 21.761 16.1366 20.25 17.995 20.25C19.8588 20.25 21.375 21.7657 21.375 23.6353V27H17.9898C16.1314 27 14.625 25.4889 14.625 23.625Z" fill="#F8F8F8"/>
<defs>
<linearGradient id="paint0_linear_250_15289" x1="6.92215" y1="2.75995" x2="26.6308" y2="35.5356" gradientUnits="userSpaceOnUse">
<stop stop-color="#4375BF"/>
<stop offset="0.83063" stop-color="#43A9BF" stop-opacity="0.77"/>
</linearGradient>
</defs>
</svg>
