<svg width="36" height="36" viewBox="0 0 36 36" fill="none" xmlns="http://www.w3.org/2000/svg">
<path d="M10.7528 29.6768C10.5661 29.8413 10.3371 29.9483 10.0924 29.9855C9.84783 30.0226 9.59783 29.9883 9.37179 29.8865C9.14576 29.7847 8.95308 29.6198 8.81637 29.4109C8.67967 29.2021 8.6046 28.9581 8.6 28.7076V25.7537C7.91044 25.7537 7.24912 25.4763 6.76152 24.9823C6.27393 24.4884 6 23.8185 6 23.1199V13.9015C6 13.203 6.27393 12.533 6.76152 12.0391C7.24912 11.5452 7.91044 11.2677 8.6 11.2677H22.9C23.5896 11.2677 24.2509 11.5452 24.7385 12.0391C25.2261 12.533 25.5 13.203 25.5 13.9015V23.1199C25.5 23.8185 25.2261 24.4884 24.7385 24.9823C24.2509 25.4763 23.5896 25.7537 22.9 25.7537H16.4039L10.7528 29.6768ZM26.8 19.1916C26.7959 19.3535 26.7959 19.5155 26.8 19.6775V19.1902C26.8065 19.0493 26.8078 17.2847 26.8052 13.8975C26.8042 12.8504 26.3928 11.8466 25.6615 11.1065C24.9303 10.3664 23.9389 9.95075 22.9052 9.95075H12.5V8.63383C12.5 7.9353 12.7739 7.26537 13.2615 6.77143C13.7491 6.27749 14.4104 6 15.1 6H29.4C30.0896 6 30.7509 6.27749 31.2385 6.77143C31.7261 7.26537 32 7.9353 32 8.63383V17.8522C32 18.5508 31.7261 19.2207 31.2385 19.7146C30.7509 20.2086 30.0896 20.4861 29.4 20.4861V23.4399C29.3954 23.6905 29.3203 23.9344 29.1836 24.1433C29.0469 24.3521 28.8542 24.5171 28.6282 24.6188C28.4022 24.7206 28.1522 24.7549 27.9076 24.7178C27.6629 24.6807 27.4339 24.5736 27.2472 24.4092L26.8 24.0984V19.1916Z" fill="url(#paint0_linear_241_13494)"/>
<defs>
<linearGradient id="paint0_linear_241_13494" x1="7.36267" y1="6.38853" x2="19.8217" y2="34.9563" gradientUnits="userSpaceOnUse">
<stop stop-color="#4375BF"/>
<stop offset="0.83063" stop-color="#43A9BF" stop-opacity="0.77"/>
</linearGradient>
</defs>
</svg>
