<svg width="36" height="36" viewBox="0 0 36 36" fill="none" xmlns="http://www.w3.org/2000/svg">
<g opacity="0.9">
<path fill-rule="evenodd" clip-rule="evenodd" d="M11.9748 33.4294C8.13359 33.3626 5.07837 30.1987 5.1436 26.3777V9.54681C5.23214 5.69322 8.41318 2.58984 12.2388 2.58984H12.2683L21.214 2.57227C21.5309 2.57227 22.922 2.9868 23.1426 3.21512L30.8569 10.9294C31.065 11.1453 31.6279 12.2619 31.6279 12.5617V26.3979C31.6341 30.2329 28.5183 33.3875 24.6834 33.4279L11.9748 33.4294Z" fill="url(#paint0_linear_250_15018)"/>
<path fill-rule="evenodd" clip-rule="evenodd" d="M31.6263 13.4202H26.3036C23.4597 13.4124 21.1484 11.095 21.1484 8.25564V2.57227C21.3403 2.57227 21.5952 2.57227 21.8584 2.57227C22.6783 2.57227 23.4626 2.90787 24.0287 3.50102L30.7966 10.5924C31.3292 11.1504 31.6263 11.8923 31.6263 12.6638C31.6263 13.0815 31.6263 13.4202 31.6263 13.4202Z" fill="#5A8BC6"/>
<path d="M22.5011 23.1445C23.5662 23.1445 24.4297 22.2811 24.4297 21.216C24.4297 20.1508 23.5662 19.2874 22.5011 19.2874H15.4297C13.2994 19.2874 11.5725 21.0143 11.5725 23.1445H22.5011Z" fill="white"/>
</g>
<defs>
<linearGradient id="paint0_linear_250_15018" x1="6.53068" y1="3.07181" x2="24.9987" y2="36.6222" gradientUnits="userSpaceOnUse">
<stop stop-color="#4375BF"/>
<stop offset="0.83063" stop-color="#43A9BF" stop-opacity="0.77"/>
</linearGradient>
</defs>
</svg>
