<svg width="28" height="28" viewBox="0 0 28 28" fill="none" xmlns="http://www.w3.org/2000/svg">
<path d="M13.9612 5.66699C9.38783 5.66699 5.66699 9.40533 5.66699 14.0003C5.66699 18.5953 9.40533 22.3337 14.0003 22.3337C18.5953 22.3337 22.3337 18.5953 22.3337 14.0003C22.3337 9.40533 18.5778 5.66699 13.9612 5.66699ZM14.0003 20.667C10.3245 20.667 7.33366 17.6762 7.33366 14.0003C7.33366 10.3245 10.3062 7.33366 13.9612 7.33366C17.6595 7.33366 20.667 10.3245 20.667 14.0003C20.667 17.6762 17.6762 20.667 14.0003 20.667Z" fill="#BF434A"/>
<path d="M13.167 9.83301H14.8337V15.6663H13.167V9.83301ZM13.167 16.4997H14.8337V18.1663H13.167V16.4997Z" fill="#BF434A"/>
</svg>
