<svg width="36" height="36" viewBox="0 0 36 36" fill="none" xmlns="http://www.w3.org/2000/svg">
<path d="M20.7978 3.59961C18.8882 3.59961 17.0569 4.35818 15.7066 5.70844C14.3564 7.0587 13.5978 8.89005 13.5978 10.7996C13.5978 12.7092 14.3564 14.5405 15.7066 15.8908C17.0569 17.241 18.8882 17.9996 20.7978 17.9996C22.7074 17.9996 24.5387 17.241 25.889 15.8908C27.2392 14.5405 27.9978 12.7092 27.9978 10.7996C27.9978 8.89005 27.2392 7.0587 25.889 5.70844C24.5387 4.35818 22.7074 3.59961 20.7978 3.59961ZM29.5548 30.2342C27.627 31.4636 25.1376 32.1494 22.4232 32.342C22.2879 31.9845 22.078 31.66 21.8076 31.3898L18.2076 27.7916C18.7292 26.7015 18.9993 25.5081 18.9978 24.2996C19.0002 22.6974 18.5252 21.1308 17.6334 19.7996H29.7978C30.7526 19.7996 31.6683 20.1789 32.3434 20.854C33.0185 21.5292 33.3978 22.4448 33.3978 23.3996C33.3978 26.4434 31.8984 28.7384 29.5548 30.2342ZM10.8978 30.5996C12.3126 30.5996 13.6194 30.1316 14.6706 29.345L19.2606 33.935C19.3442 34.0187 19.4434 34.0851 19.5526 34.1304C19.6618 34.1758 19.7789 34.1991 19.8972 34.1992C20.0154 34.1993 20.1325 34.1761 20.2418 34.1309C20.3511 34.0857 20.4504 34.0195 20.5341 33.9359C20.6178 33.8523 20.6842 33.7531 20.7295 33.6439C20.7748 33.5347 20.7982 33.4176 20.7983 33.2993C20.7984 33.1811 20.7752 33.064 20.73 32.9547C20.6848 32.8454 20.6186 32.7461 20.535 32.6624L15.945 28.0724C16.7946 26.9362 17.2359 25.5465 17.1973 24.1283C17.1587 22.7101 16.6426 21.3464 15.7324 20.2581C14.8223 19.1697 13.5714 18.4205 12.1824 18.1316C10.7934 17.8427 9.34755 18.0311 8.07895 18.6663C6.81036 19.3015 5.79331 20.3463 5.19247 21.6316C4.59164 22.9168 4.4422 24.3672 4.76835 25.7479C5.09451 27.1287 5.87716 28.3589 6.98958 29.2394C8.10201 30.1199 9.47907 30.5992 10.8978 30.5996ZM10.8978 28.7996C9.70433 28.7996 8.55974 28.3255 7.71583 27.4816C6.87191 26.6377 6.39781 25.4931 6.39781 24.2996C6.39781 23.1061 6.87191 21.9615 7.71583 21.1176C8.55974 20.2737 9.70433 19.7996 10.8978 19.7996C12.0913 19.7996 13.2359 20.2737 14.0798 21.1176C14.9237 21.9615 15.3978 23.1061 15.3978 24.2996C15.3978 25.4931 14.9237 26.6377 14.0798 27.4816C13.2359 28.3255 12.0913 28.7996 10.8978 28.7996Z" fill="url(#paint0_linear_241_13479)"/>
<defs>
<linearGradient id="paint0_linear_241_13479" x1="6.10893" y1="4.09498" x2="23.4914" y2="38.7199" gradientUnits="userSpaceOnUse">
<stop stop-color="#4375BF"/>
<stop offset="0.83063" stop-color="#43A9BF" stop-opacity="0.77"/>
</linearGradient>
</defs>
</svg>
