<svg width="20" height="20" viewBox="0 0 20 20" fill="none" xmlns="http://www.w3.org/2000/svg">
  <g opacity="0.9">
    <path
      d="M10.999 1C9.93813 1 8.92072 1.42143 8.17057 2.17157C7.42043 2.92172 6.999 3.93913 6.999 5C6.999 6.06087 7.42043 7.07828 8.17057 7.82843C8.92072 8.57857 9.93813 9 10.999 9C12.0599 9 13.0773 8.57857 13.8274 7.82843C14.5776 7.07828 14.999 6.06087 14.999 5C14.999 3.93913 14.5776 2.92172 13.8274 2.17157C13.0773 1.42143 12.0599 1 10.999 1ZM15.864 15.797C14.793 16.48 13.41 16.861 11.902 16.968C11.8268 16.7694 11.7102 16.5891 11.56 16.439L9.56 14.44C9.84979 13.8344 9.99981 13.1714 9.999 12.5C10.0003 11.6099 9.73642 10.7395 9.241 10H15.999C16.5294 10 17.0381 10.2107 17.4132 10.5858C17.7883 10.9609 17.999 11.4696 17.999 12C17.999 13.691 17.166 14.966 15.864 15.797ZM5.499 16C6.285 16 7.011 15.74 7.595 15.303L10.145 17.853C10.1914 17.8995 10.2465 17.9364 10.3072 17.9616C10.3679 17.9867 10.4329 17.9997 10.4986 17.9998C10.5643 17.9998 10.6294 17.9869 10.6901 17.9618C10.7508 17.9367 10.806 17.8999 10.8525 17.8535C10.899 17.8071 10.9359 17.752 10.9611 17.6913C10.9862 17.6306 10.9992 17.5656 10.9993 17.4999C10.9993 17.4342 10.9864 17.3691 10.9613 17.3084C10.9362 17.2477 10.8994 17.1925 10.853 17.146L8.303 14.596C8.77501 13.9648 9.02014 13.1927 8.99871 12.4048C8.97727 11.6169 8.69052 10.8593 8.18489 10.2547C7.67926 9.65007 6.98435 9.23382 6.21267 9.07333C5.441 8.91283 4.63774 9.01751 3.93297 9.3704C3.2282 9.72329 2.66317 10.3037 2.32937 11.0177C1.99557 11.7318 1.91255 12.5375 2.09375 13.3046C2.27494 14.0717 2.70975 14.7552 3.32776 15.2443C3.94578 15.7335 4.71081 15.9998 5.499 16V16ZM5.499 15C4.83596 15 4.20007 14.7366 3.73123 14.2678C3.26239 13.7989 2.999 13.163 2.999 12.5C2.999 11.837 3.26239 11.2011 3.73123 10.7322C4.20007 10.2634 4.83596 10 5.499 10C6.16204 10 6.79792 10.2634 7.26677 10.7322C7.73561 11.2011 7.999 11.837 7.999 12.5C7.999 13.163 7.73561 13.7989 7.26677 14.2678C6.79792 14.7366 6.16204 15 5.499 15Z"
      fill-rule="evenodd" clip-rule="evenodd" fill="url(#paint0_linear_241_13517)" />
  </g>
  <defs>
    <linearGradient id="paint0_linear_241_13517" x1="2.56498" y1="1.26532" x2="11.2784" y2="20.5461"
      gradientUnits="userSpaceOnUse">
      <stop stop-color="#4375BF" />
      <stop offset="0.916667" stop-color="#43A9BF" stop-opacity="0.77" />
    </linearGradient>
  </defs>
</svg>