<svg width="24" height="24" viewBox="0 0 24 24" fill="none" xmlns="http://www.w3.org/2000/svg">
  <path
    d="M12 5.14286C17.1377 5.14286 21.8571 9.04855 21.8571 12C21.8571 14.9515 17.1377 18.8571 12 18.8571C6.8622 18.8571 2.14282 14.9515 2.14282 12C2.14282 9.04855 6.8622 5.14286 12 5.14286ZM12 6.85715C7.74487 6.85715 3.85711 10.0746 3.85711 12C3.85711 13.9254 7.74487 17.1429 12 17.1429C16.2551 17.1429 20.1428 13.9254 20.1428 12C20.1428 10.0746 16.2551 6.85715 12 6.85715ZM12 8.57143C13.8935 8.57143 15.4285 10.1065 15.4285 12C15.4285 13.8936 13.8935 15.4286 12 15.4286C10.1064 15.4286 8.57139 13.8936 8.57139 12C8.57139 10.1065 10.1064 8.57143 12 8.57143ZM12 10.2857C11.0532 10.2857 10.2857 11.0532 10.2857 12C10.2857 12.9468 11.0532 13.7143 12 13.7143C12.9467 13.7143 13.7143 12.9468 13.7143 12C13.7143 11.0532 12.9467 10.2857 12 10.2857Z"
    fill="#93989D" />
</svg>