<svg width="36" height="36" viewBox="0 0 36 36" fill="none" xmlns="http://www.w3.org/2000/svg">
<path d="M10.0594 6C8.98277 6 7.95025 6.44127 7.18897 7.22674C6.42768 8.01222 6 9.07754 6 10.1884V22.4313C6 23.5421 6.42768 24.6074 7.18897 25.3929C7.95025 26.1784 8.98277 26.6197 10.0594 26.6197H17.8634C17.1449 24.8427 17.0417 22.8646 17.5711 21.0183C18.1004 19.172 19.2301 17.5703 20.7699 16.4826C22.3097 15.3949 24.1656 14.8877 26.0254 15.0464C27.8851 15.205 29.6351 16.0198 30.9808 17.3537V10.1884C30.9808 9.63835 30.8758 9.09371 30.6718 8.58555C30.4678 8.07739 30.1688 7.61567 29.7919 7.22674C29.4149 6.83782 28.9674 6.52931 28.4749 6.31882C27.9824 6.10834 27.4545 6 26.9214 6H10.0594ZM21.3357 18.8564C21.4289 19.1896 21.456 19.5387 21.4153 19.883C21.3747 20.2272 21.2671 20.5594 21.099 20.8598C20.931 21.1601 20.7059 21.4224 20.4373 21.6308C20.1687 21.8393 19.8621 21.9897 19.5359 22.073L18.8064 22.2586C18.6894 23.0308 18.6919 23.8173 18.8139 24.5886L19.4884 24.7562C19.8176 24.838 20.1273 24.988 20.3986 25.1971C20.6698 25.4063 20.8971 25.6701 21.0665 25.9727C21.2359 26.2752 21.3439 26.6101 21.3839 26.9571C21.424 27.304 21.3953 27.6557 21.2995 27.9909L21.0659 28.8041C21.6155 29.3015 22.24 29.7049 22.9195 29.9923L23.5365 29.3234C23.7699 29.0702 24.0507 28.8685 24.362 28.7307C24.6732 28.5929 25.0083 28.5219 25.347 28.5219C25.6857 28.5219 26.0208 28.5929 26.3321 28.7307C26.6433 28.8685 26.9242 29.0702 27.1575 29.3234L27.7795 30C28.4559 29.7164 29.0818 29.3188 29.6319 28.8234L29.3845 27.9393C29.2913 27.6061 29.2643 27.257 29.3049 26.9127C29.3456 26.5685 29.4532 26.2362 29.6212 25.9359C29.7893 25.6356 30.0143 25.3733 30.2829 25.1649C30.5515 24.9564 30.8582 24.806 31.1844 24.7227L31.9139 24.5371C32.0312 23.7649 32.0286 22.9784 31.9064 22.2071L31.2319 22.0395C30.9027 21.9577 30.593 21.8077 30.3217 21.5985C30.0504 21.3894 29.8232 21.1256 29.6538 20.823C29.4844 20.5205 29.3764 20.1856 29.3363 19.8386C29.2963 19.4917 29.325 19.1399 29.4208 18.8048L29.6543 17.9929C29.1047 17.4934 28.4783 17.0919 27.8008 16.8047L27.185 17.4723C26.9516 17.7257 26.6707 17.9276 26.3594 18.0655C26.048 18.2034 25.7127 18.2745 25.3739 18.2745C25.035 18.2745 24.6998 18.2034 24.3884 18.0655C24.077 17.9276 23.7961 17.7257 23.5628 17.4723L22.9407 16.7957C22.2645 17.079 21.6386 17.4762 21.0884 17.971L21.3357 18.8564ZM25.3601 25.3309C24.3609 25.3309 23.549 24.4649 23.549 23.3978C23.549 22.3308 24.3609 21.4647 25.3601 21.4647C26.3594 21.4647 27.1712 22.3308 27.1712 23.3978C27.1712 24.4649 26.3594 25.3309 25.3601 25.3309Z" fill="url(#paint0_linear_241_13501)"/>
<defs>
<linearGradient id="paint0_linear_241_13501" x1="7.36267" y1="6.38853" x2="19.8217" y2="34.9563" gradientUnits="userSpaceOnUse">
<stop stop-color="#4375BF"/>
<stop offset="0.83063" stop-color="#43A9BF" stop-opacity="0.77"/>
</linearGradient>
</defs>
</svg>
