<svg width="36" height="36" viewBox="0 0 36 36" fill="none" xmlns="http://www.w3.org/2000/svg">
<g opacity="0.9">
<path fill-rule="evenodd" clip-rule="evenodd" d="M10.8241 32.4993C10.1709 32.4993 9.52244 32.292 8.9673 31.8838C8.00884 31.1758 7.5391 30.007 7.74313 28.8302L8.84393 22.436C8.88505 22.1985 8.80439 21.9577 8.63041 21.7886L3.95516 17.2601C3.09476 16.4293 2.78635 15.2015 3.15012 14.0614C3.51706 12.9086 4.48817 12.0842 5.68545 11.912L12.1511 10.9728C12.401 10.9377 12.6161 10.783 12.7236 10.563L15.6132 4.73966C16.1462 3.66652 17.2217 3 18.4206 3C19.6195 3 20.695 3.66652 21.228 4.73966L24.1192 10.5614C24.2283 10.783 24.4418 10.9377 24.6901 10.9728L31.1558 11.912C32.353 12.0842 33.3242 12.9086 33.6911 14.0614C34.0549 15.2015 33.7449 16.4293 32.8845 17.2601L28.2092 21.7886C28.0352 21.9577 27.9562 22.1985 27.9973 22.4344L29.0997 28.8302C29.3021 30.0086 28.8324 31.1774 27.8723 31.8838C26.8996 32.6029 25.6328 32.7002 24.5588 32.1357L18.7812 29.1172C18.555 28.9992 18.2846 28.9992 18.0584 29.1172L12.2808 32.1373C11.8189 32.3797 11.3207 32.4993 10.8241 32.4993Z" fill="url(#paint0_linear_250_15010)"/>
<path d="M14.3945 18.5C14.3945 16.2909 16.1861 14.5 18.3885 14.5C20.5975 14.5 22.3945 16.2963 22.3945 18.5122V22.5H18.3824C16.1799 22.5 14.3945 20.7091 14.3945 18.5Z" fill="#F8F8F8"/>
</g>
<defs>
<linearGradient id="paint0_linear_250_15010" x1="4.61638" y1="3.47757" x2="20.3006" y2="38.183" gradientUnits="userSpaceOnUse">
<stop stop-color="#4375BF"/>
<stop offset="0.916667" stop-color="#43A9BF" stop-opacity="0.77"/>
</linearGradient>
</defs>
</svg>
