<svg width="20" height="20" viewBox="0 0 20 20" fill="none" xmlns="http://www.w3.org/2000/svg">
<g opacity="0.9">
<path fill-rule="evenodd" clip-rule="evenodd" d="M6.01372 17.3885C5.65083 17.3885 5.29057 17.2733 4.98216 17.0465C4.44968 16.6532 4.18871 16.0039 4.30206 15.3501L4.91362 11.7978C4.93647 11.6658 4.89165 11.532 4.795 11.4381L2.19764 8.92228C1.71964 8.46075 1.5483 7.77863 1.75039 7.14524C1.95424 6.50476 2.49375 6.04677 3.15891 5.9511L6.75093 5.42932C6.88976 5.40983 7.00926 5.3239 7.06901 5.20165L8.67435 1.96648C8.97046 1.37029 9.56796 1 10.234 1C10.9 1 11.4975 1.37029 11.7936 1.96648L13.3999 5.20077C13.4605 5.3239 13.5791 5.40983 13.7171 5.42932L17.3091 5.9511C17.9742 6.04677 18.5137 6.50476 18.7176 7.14524C18.9197 7.77863 18.7475 8.46075 18.2695 8.92228L15.6721 11.4381C15.5755 11.532 15.5315 11.6658 15.5544 11.7969L16.1668 15.3501C16.2793 16.0048 16.0183 16.6541 15.485 17.0465C14.9446 17.4461 14.2407 17.5001 13.6441 17.1865L10.4343 15.5096C10.3087 15.444 10.1584 15.444 10.0328 15.5096L6.82298 17.1874C6.56641 17.3221 6.28962 17.3885 6.01372 17.3885Z" fill="url(#paint0_linear_241_13517)"/>
<path d="M7.99707 9.61089C7.99707 8.38359 8.99237 7.38867 10.216 7.38867C11.4432 7.38867 12.4415 8.38663 12.4415 9.6177V11.8331H10.2126C8.98896 11.8331 7.99707 10.8382 7.99707 9.61089Z" fill="#F8F8F8"/>
</g>
<defs>
<linearGradient id="paint0_linear_241_13517" x1="2.56498" y1="1.26532" x2="11.2784" y2="20.5461" gradientUnits="userSpaceOnUse">
<stop stop-color="#4375BF"/>
<stop offset="0.916667" stop-color="#43A9BF" stop-opacity="0.77"/>
</linearGradient>
</defs>
</svg>
