<svg width="44" height="44" viewBox="0 0 44 44" fill="none" xmlns="http://www.w3.org/2000/svg">
<path d="M22 16C26.8 16 30 20.8 30 22C30 23.2 26.8 28 22 28C17.2 28 14 23.2 14 22C14 20.8 17.2 16 22 16ZM22 17.8C19.7909 17.8 18 19.6804 18 22C18 24.3196 19.7909 26.2 22 26.2C24.2091 26.2 26 24.3196 26 22C26 19.6804 24.2091 17.8 22 17.8ZM22 20.2C22.9468 20.2 23.7143 21.0059 23.7143 22C23.7143 22.9941 22.9468 23.8 22 23.8C21.0532 23.8 20.2857 22.9941 20.2857 22C20.2857 21.0059 21.0532 20.2 22 20.2Z" fill="#171717" fill-opacity="0.48"/>
</svg>
