<svg width="36" height="36" viewBox="0 0 36 36" fill="none" xmlns="http://www.w3.org/2000/svg">
<g opacity="0.9">
<path fill-rule="evenodd" clip-rule="evenodd" d="M31.0821 6.33211C31.4726 5.94158 31.4726 5.30842 31.0821 4.91789C30.6916 4.52737 30.0584 4.52737 29.6679 4.91789L4.91789 29.6679C4.52737 30.0584 4.52737 30.6916 4.91789 31.0821C5.30842 31.4726 5.94158 31.4726 6.33211 31.0821L31.0821 6.33211ZM17.7435 28.4116C15.6662 28.4116 13.6324 28.0054 11.7572 27.323L16.264 22.8163C16.7344 22.9504 17.231 23.0222 17.7445 23.0222C20.7208 23.0222 23.1335 20.6094 23.1335 17.6332C23.1335 17.1197 23.0617 16.623 22.9276 16.1526L28.5512 10.529C31.3965 12.64 33.2369 15.3228 33.2369 17.6335C33.2369 22.2726 25.819 28.4116 17.7435 28.4116ZM19.7952 12.648C19.163 12.3877 18.4705 12.2441 17.7445 12.2441C14.7682 12.2441 12.3555 14.6569 12.3555 17.6332C12.3555 18.3592 12.499 19.0517 12.7594 19.6838L7.38351 25.0597C4.28495 22.9046 2.25 20.0633 2.25 17.6335C2.25 12.9944 9.66792 6.85547 17.7435 6.85547C20.0282 6.85547 22.2602 7.34685 24.2866 8.15662L19.7952 12.648Z" fill="url(#paint0_linear_250_15309)"/>
</g>
<defs>
<linearGradient id="paint0_linear_250_15309" x1="4.94318" y1="5.06353" x2="18.1175" y2="38.2033" gradientUnits="userSpaceOnUse">
<stop stop-color="#4375BF"/>
<stop offset="0.83063" stop-color="#43A9BF" stop-opacity="0.77"/>
</linearGradient>
</defs>
</svg>
